<?xml version='1.0' encoding='ascii'?>
<svg xmlns="http://www.w3.org/2000/svg" version="1.1" width="1920" height="1080">
    <g id="ViewLayer_LineSet" xmlns:inkscape="http://www.inkscape.org/namespaces/inkscape" inkscape:groupmode="lineset" inkscape:label="ViewLayer_LineSet">
        <g xmlns:inkscape="http://www.inkscape.org/namespaces/inkscape" inkscape:groupmode="layer" id="strokes" inkscape:label="strokes">
            <path fill="none" stroke-width="1.0" stroke-linecap="butt" stroke-opacity="1.0" stroke="rgb(0, 0, 0)" stroke-linejoin="round" d=" M 787.336, 482.111 788.335, 482.160 789.334, 482.208 790.263, 482.254 791.262, 482.302 792.260, 482.351 793.259, 482.400 794.258, 482.449 795.257, 482.498 796.256, 482.546 797.255, 482.595 798.253, 482.644 799.252, 482.693 800.251, 482.741 801.250, 482.790 802.249, 482.839 803.247, 482.888 804.246, 482.937 805.245, 482.985 806.244, 483.034 807.243, 483.083 808.241, 483.132 809.240, 483.180 810.239, 483.229 811.238, 483.278 812.237, 483.327 813.235, 483.375 814.234, 483.424 815.233, 483.473 816.232, 483.522 817.231, 483.571 818.230, 483.619 819.228, 483.668 820.227, 483.717 821.226, 483.766 822.225, 483.814 823.224, 483.863 824.222, 483.912 825.221, 483.961 826.220, 484.010 827.219, 484.058 828.218, 484.107 829.216, 484.156 830.215, 484.205 831.214, 484.253 832.213, 484.302 833.212, 484.351 834.211, 484.400 835.209, 484.448 836.208, 484.497 837.207, 484.546 838.206, 484.595 839.205, 484.644 840.203, 484.692 841.202, 484.741 842.201, 484.790 843.200, 484.839 844.199, 484.887 845.197, 484.936 846.196, 484.985 847.195, 485.034 848.194, 485.083 849.193, 485.131 850.191, 485.180 851.190, 485.229 852.189, 485.278 853.188, 485.326 854.187, 485.375 855.185, 485.424 856.184, 485.473 857.183, 485.521 858.182, 485.570 859.181, 485.619 860.015, 485.660 861.014, 485.708 862.012, 485.757 863.011, 485.806 863.980, 485.853 864.979, 485.902 865.978, 485.951 866.977, 486.000 867.976, 486.048 868.974, 486.097 869.973, 486.146 870.972, 486.195 871.971, 486.244 872.970, 486.292 873.969, 486.341 874.967, 486.390 875.661, 486.424 876.660, 486.473 877.659, 486.521 878.658, 486.570 879.657, 486.619 880.656, 486.668 881.654, 486.716 882.653, 486.765 883.652, 486.814 884.651, 486.863 885.650, 486.911 886.648, 486.960 887.647, 487.009 888.646, 487.058 889.645, 487.107 890.644, 487.155 891.642, 487.204 892.641, 487.253 893.640, 487.302 894.639, 487.350 895.638, 487.399 896.636, 487.448 897.635, 487.497 898.634, 487.546 899.633, 487.594 900.632, 487.643 901.630, 487.692 902.629, 487.741 903.628, 487.789 904.627, 487.838 905.626, 487.887 906.625, 487.936 907.623, 487.985 908.622, 488.033 909.621, 488.082 910.620, 488.131 911.619, 488.180 912.617, 488.228 913.616, 488.277 914.615, 488.326 915.614, 488.375 916.613, 488.424 917.611, 488.472 918.610, 488.521 919.609, 488.570 920.608, 488.619 921.607, 488.667 922.606, 488.716 923.604, 488.765 924.603, 488.814 925.602, 488.862 926.601, 488.911 927.600, 488.960 928.598, 489.009 929.597, 489.058 930.596, 489.106 931.595, 489.155 932.594, 489.204 933.592, 489.253 934.591, 489.301 935.590, 489.350 936.589, 489.399 937.588, 489.448 938.586, 489.497 939.585, 489.545 940.584, 489.594 941.583, 489.643 942.582, 489.692 943.581, 489.740 944.579, 489.789 945.578, 489.838 946.577, 489.887 947.576, 489.935 948.575, 489.984 949.573, 490.033 950.572, 490.082 951.571, 490.131 952.570, 490.179 953.569, 490.228 954.567, 490.277 955.566, 490.326 956.565, 490.374 957.564, 490.423 958.563, 490.472 959.561, 490.521 960.560, 490.570 961.559, 490.618 962.558, 490.667 963.557, 490.716 964.589, 490.766 965.588, 490.815 966.587, 490.864 967.586, 490.913 968.585, 490.961 969.583, 491.010 970.582, 491.059 971.581, 491.108 972.580, 491.156 973.579, 491.205 974.578, 491.254 975.576, 491.303 976.575, 491.352 977.574, 491.400 978.573, 491.449 979.572, 491.498 980.570, 491.547 981.569, 491.595 982.568, 491.644 983.567, 491.693 984.566, 491.742 985.564, 491.791 986.563, 491.839 987.562, 491.888 988.561, 491.937 989.560, 491.986 990.559, 492.034 991.557, 492.083 992.556, 492.132 993.555, 492.181 994.554, 492.229 995.553, 492.278 996.551, 492.327 997.550, 492.376 998.549, 492.425 999.548, 492.473 1000.547, 492.522 1001.545, 492.571 1002.544, 492.620 1003.543, 492.668 1004.542, 492.717 1005.541, 492.766 1006.539, 492.815 1007.538, 492.864 1008.537, 492.912 1009.536, 492.961 1010.535, 493.010 1011.534, 493.059 1012.532, 493.107 1013.531, 493.156 1014.530, 493.205 1015.529, 493.254 1016.528, 493.302 1017.526, 493.351 1018.525, 493.400 1019.524, 493.449 1020.523, 493.498 1021.522, 493.546 1022.520, 493.595 1023.519, 493.644 1024.518, 493.693 1025.517, 493.741 1026.516, 493.790 1027.515, 493.839 1028.513, 493.888 1029.512, 493.937 1030.511, 493.985 1031.510, 494.034 1032.509, 494.083 1033.507, 494.132 1034.506, 494.180 1035.505, 494.229 1036.504, 494.278 1037.503, 494.327 1038.501, 494.375 1039.500, 494.424 1040.499, 494.473 1041.498, 494.522 1042.497, 494.571 1043.495, 494.619 1044.494, 494.668 1045.493, 494.717 1046.492, 494.766 1047.491, 494.814 1048.490, 494.863 1049.488, 494.912 1050.487, 494.961 1051.486, 495.010 1052.485, 495.058 1054.126, 495.138 1054.638, 494.279 1055.149, 493.419 1055.660, 492.560 1056.171, 491.701 1056.682, 490.841 1057.193, 489.982 1057.705, 489.122 1058.216, 488.263 1058.727, 487.403 1059.238, 486.544 1059.749, 485.684 1060.260, 484.825 1060.772, 483.965 1061.283, 483.106 1061.794, 482.246 1062.305, 481.387 1062.816, 480.527 1063.327, 479.668 1063.839, 478.808 1064.350, 477.949 1064.861, 477.089 1065.372, 476.230 1065.883, 475.370 1066.394, 474.511 1066.906, 473.651 1067.417, 472.792 1067.928, 471.932 1068.439, 471.073 1068.950, 470.213 1069.461, 469.354 1069.973, 468.495 1070.484, 467.635 1070.995, 466.776 1071.506, 465.916 1072.017, 465.057 1072.528, 464.197 1073.040, 463.338 1073.551, 462.478 1074.062, 461.619 1074.573, 460.759 1075.084, 459.900 1075.595, 459.040 1076.106, 458.181 1076.618, 457.321 1077.129, 456.462 1077.640, 455.602 1078.151, 454.743 1078.662, 453.883 1079.173, 453.024 1079.685, 452.164 1080.196, 451.305 1080.707, 450.445 1081.218, 449.586 1081.729, 448.726 1082.240, 447.867 1082.752, 447.007 1083.263, 446.148 1083.774, 445.288 1084.285, 444.429 1084.796, 443.569 1085.307, 442.710 1085.819, 441.851 1086.330, 440.991 1086.841, 440.132 1087.352, 439.272 1087.863, 438.413 1088.374, 437.553 1088.886, 436.694 1089.397, 435.834 1089.908, 434.975 1090.419, 434.115 1090.930, 433.256 1091.441, 432.396 1091.953, 431.537 1092.464, 430.677 1092.975, 429.818 1093.751, 428.513 1094.679, 428.141 1095.607, 427.768 1096.535, 427.396 1097.463, 427.023 1098.391, 426.651 1099.319, 426.278 1100.247, 425.906 1101.175, 425.533 1102.103, 425.160 1103.031, 424.788 1103.959, 424.415 1104.887, 424.043 1105.815, 423.670 1106.743, 423.298 1107.671, 422.925 1108.599, 422.553 1109.527, 422.180 1110.455, 421.808 1111.383, 421.435 1112.311, 421.063 1113.239, 420.690 1114.167, 420.318 1115.095, 419.945 1116.023, 419.573 1116.951, 419.200 1117.879, 418.827 1118.807, 418.455 1119.735, 418.082 1120.663, 417.710 1121.591, 417.337 1122.519, 416.965 1123.447, 416.592 1124.375, 416.220 1125.303, 415.847 1126.231, 415.475 1127.159, 415.102 1128.087, 414.730 1129.016, 414.357 1129.943, 413.984 1130.871, 413.612 1131.800, 413.239 1132.728, 412.867 1133.656, 412.494 1134.584, 412.122 1135.512, 411.749 1136.440, 411.377 1137.368, 411.004 1138.296, 410.632 1139.224, 410.259 1140.152, 409.887 1141.080, 409.514 1142.008, 409.142 1142.936, 408.769 1143.864, 408.396 1144.792, 408.024 1145.720, 407.651 1146.648, 407.279 1147.576, 406.906 1148.504, 406.534 1149.432, 406.161 1150.360, 405.789 1151.288, 405.416 1152.216, 405.044 1153.144, 404.671 1154.072, 404.299 1155.000, 403.926 1155.928, 403.554 1156.856, 403.181 1157.784, 402.808 1158.712, 402.436 1159.640, 402.063 1160.568, 401.691 1161.496, 401.318 1162.424, 400.946 1163.352, 400.573 1164.280, 400.201 1165.208, 399.828 1166.136, 399.456 1167.064, 399.083 1167.992, 398.711 1168.920, 398.338 1169.848, 397.966 1170.776, 397.593 1171.704, 397.221 1172.632, 396.848 1173.560, 396.475 1174.488, 396.103 1175.416, 395.730 1176.344, 395.358 1177.272, 394.985 1178.200, 394.613 1179.129, 394.240 1180.057, 393.868 1180.984, 393.495 1181.913, 393.123 1182.841, 392.750 1183.769, 392.378 1184.697, 392.005 1185.625, 391.633 1186.553, 391.260 1187.481, 390.887 1188.409, 390.515 1189.337, 390.142 1190.349, 389.736 1191.277, 389.363 1192.205, 388.991 1192.459, 388.889 1193.387, 388.516 1194.315, 388.144 1195.243, 387.771 1196.171, 387.399 1197.099, 387.026 1198.027, 386.654 1198.955, 386.281 1199.884, 385.909 1200.812, 385.536 1201.740, 385.164 1202.668, 384.791 1203.596, 384.418 1204.524, 384.046 1205.452, 383.673 1206.380, 383.301 1207.308, 382.928 1208.236, 382.556 1209.164, 382.183 1210.092, 381.811 1211.020, 381.438 1211.948, 381.066 1212.876, 380.693 1213.804, 380.321 1214.732, 379.948 1215.660, 379.576 1216.588, 379.203 1217.516, 378.830 1218.444, 378.458 1219.372, 378.085 1220.300, 377.713 1221.228, 377.340 1222.156, 376.968 1223.084, 376.595 1224.012, 376.223 1224.940, 375.850 1225.868, 375.478 1226.796, 375.105 1227.724, 374.733 1228.652, 374.360 1229.580, 373.988 1230.508, 373.615 1231.436, 373.242 1232.364, 372.870 1233.292, 372.497 1234.220, 372.125 1235.148, 371.752 1236.076, 371.380 1237.004, 371.007 1237.932, 370.635 1238.860, 370.262 1239.788, 369.890 1240.716, 369.517 1241.644, 369.145 1242.572, 368.772 1243.500, 368.400 1244.428, 368.027 1245.356, 367.654 1246.284, 367.282 1247.212, 366.909 1248.141, 366.537 1249.068, 366.164 1249.996, 365.792 1250.925, 365.419 1251.853, 365.047 1252.781, 364.674 1253.709, 364.302 1254.637, 363.929 1255.565, 363.557 1256.493, 363.184 1257.421, 362.812 1258.349, 362.439 1259.277, 362.066 1260.205, 361.694 1261.133, 361.321 1262.061, 360.949 1262.989, 360.576 1263.917, 360.204 1264.845, 359.831 1265.773, 359.459 1266.701, 359.086 1267.629, 358.714 1268.557, 358.341 1269.485, 357.969 1270.413, 357.596 1271.341, 357.224 1272.269, 356.851 1273.197, 356.479 1274.125, 356.106 1275.053, 355.733 1275.981, 355.361 1276.909, 354.988 1277.837, 354.616 1278.765, 354.243 1279.693, 353.871 1280.621, 353.498 1281.549, 353.126 1282.477, 352.753 1283.405, 352.381 1284.333, 352.008 1285.261, 351.636 1286.189, 351.263 1287.117, 350.891 1288.045, 350.518 1288.973, 350.145 1289.901, 349.773 1290.829, 349.400 1291.757, 349.028 1292.685, 348.655 1293.613, 348.283 1294.541, 347.910 1295.469, 347.538 1296.397, 347.165 1297.325, 346.793 1298.254, 346.420 1299.182, 346.048 1300.109, 345.675 1301.038, 345.302 1301.966, 344.930 1302.894, 344.557 1303.822, 344.185 1304.750, 343.812 1305.678, 343.440 1306.606, 343.067 1307.534, 342.695 1308.462, 342.322 1309.390, 341.950 1310.318, 341.577 1311.246, 341.205 1312.174, 340.832 1313.102, 340.460 1314.030, 340.087 1314.958, 339.714 1315.886, 339.342 1316.814, 338.969 1317.742, 338.597 1318.670, 338.224 1319.598, 337.852 1320.526, 337.479 1321.454, 337.107 1322.382, 336.734 1323.310, 336.362 1324.238, 335.989 1325.166, 335.617 1326.094, 335.244 1327.022, 334.872 1327.950, 334.499 1328.878, 334.127 1329.806, 333.754 1330.734, 333.381 1332.919, 332.504 1333.675, 332.770 1333.171, 333.634 1332.668, 334.498 1332.164, 335.362 1331.661, 336.226 1331.157, 337.090 1330.654, 337.954 1330.151, 338.818 1329.647, 339.682 1329.144, 340.546 1328.640, 341.410 1328.137, 342.274 1327.633, 343.138 1327.130, 344.002 1326.626, 344.866 1326.123, 345.730 1325.619, 346.594 1325.116, 347.458 1324.612, 348.322 1324.109, 349.186 1323.605, 350.050 1323.102, 350.914 1322.598, 351.778 1322.095, 352.642 1321.591, 353.506 1321.088, 354.370 1320.584, 355.234 1320.081, 356.099 1319.577, 356.962 1319.074, 357.826 1318.570, 358.690 1318.067, 359.555 1317.563, 360.419 1317.060, 361.283 1316.556, 362.146 1316.053, 363.010 1315.549, 363.875 1315.046, 364.739 1314.542, 365.603 1314.039, 366.467 1313.536, 367.331 1313.032, 368.195 1312.528, 369.059 1312.025, 369.923 1311.521, 370.787 1311.018, 371.651 1310.515, 372.515 1310.011, 373.379 1309.508, 374.243 1309.004, 375.107 1308.501, 375.971 1307.997, 376.835 1307.494, 377.699 1306.990, 378.563 1306.487, 379.427 1305.983, 380.291 1305.480, 381.155 1304.976, 382.019 1304.473, 382.883 1303.969, 383.747 1303.466, 384.611 1302.962, 385.475 1302.459, 386.339 1301.955, 387.203 1301.452, 388.067 1300.948, 388.931 1300.445, 389.795 1299.941, 390.659 1299.438, 391.523 1298.934, 392.387 1298.431, 393.251 1297.860, 394.231 1296.938, 394.618 1296.016, 395.006 1295.094, 395.394 1294.172, 395.781 1293.251, 396.169 1292.329, 396.556 1291.407, 396.944 1290.485, 397.332 1289.563, 397.719 1288.641, 398.107 1287.720, 398.494 1286.798, 398.882 1285.876, 399.270 1284.954, 399.657 1284.032, 400.045 1283.110, 400.432 1282.189, 400.820 1281.267, 401.207 1280.345, 401.595 1279.423, 401.983 1278.501, 402.370 1277.579, 402.758 1276.658, 403.145 1275.736, 403.533 1274.814, 403.921 1273.892, 404.308 1272.970, 404.696 1272.048, 405.083 1271.127, 405.471 1270.205, 405.859 1269.283, 406.246 1268.361, 406.634 1267.439, 407.021 1266.517, 407.409 1265.596, 407.797 1264.674, 408.184 1263.752, 408.572 1262.830, 408.959 1261.908, 409.347 1260.987, 409.735 1260.065, 410.122 1259.143, 410.510 1258.221, 410.897 1257.299, 411.285 1256.377, 411.673 1255.456, 412.060 1254.534, 412.448 1253.612, 412.835 1252.690, 413.223 1251.768, 413.611 1250.846, 413.998 1249.925, 414.386 1249.003, 414.773 1248.081, 415.161 1247.159, 415.548 1246.237, 415.936 1245.315, 416.324 1244.394, 416.711 1243.472, 417.099 1242.550, 417.486 1241.628, 417.874 1240.706, 418.262 1239.784, 418.649 1238.863, 419.037 1237.941, 419.424 1237.019, 419.812 1236.097, 420.200 1235.175, 420.587 1234.253, 420.975 1233.332, 421.362 1232.410, 421.750 1231.488, 422.138 1230.566, 422.525 1229.644, 422.913 1228.723, 423.300 1227.801, 423.688 1226.879, 424.076 1225.957, 424.463 1225.035, 424.851 1224.113, 425.238 1223.192, 425.626 1222.270, 426.014 1221.348, 426.401 1220.426, 426.789 1219.504, 427.176 1218.582, 427.564 1217.661, 427.952 1216.739, 428.339 1215.817, 428.727 1214.895, 429.114 1213.973, 429.502 1213.051, 429.889 1212.130, 430.277 1211.208, 430.665 1210.286, 431.052 1209.364, 431.440 1208.442, 431.827 1207.520, 432.215 1206.599, 432.603 1205.677, 432.990 1204.755, 433.378 1203.833, 433.765 1202.911, 434.153 1201.989, 434.541 1201.068, 434.928 1200.146, 435.316 1199.224, 435.703 1198.302, 436.091 1197.380, 436.479 1196.458, 436.866 1195.537, 437.254 1194.615, 437.641 1193.693, 438.029 1192.771, 438.417 1191.849, 438.804 1190.927, 439.192 1190.006, 439.579 1189.084, 439.967 1188.162, 440.355 1187.240, 440.742 1186.318, 441.130 1185.396, 441.517 1184.475, 441.905 1183.553, 442.293 1182.631, 442.680 1181.709, 443.068 1180.787, 443.455 1179.865, 443.843 1178.944, 444.230 1178.022, 444.618 1177.100, 445.006 1176.178, 445.393 1175.256, 445.781 1174.334, 446.168 1173.413, 446.556 1172.491, 446.944 1171.569, 447.331 1170.647, 447.719 1169.725, 448.106 1168.804, 448.494 1167.882, 448.882 1166.960, 449.269 1166.038, 449.657 1165.116, 450.044 1164.194, 450.432 1163.273, 450.820 1162.351, 451.207 1161.429, 451.595 1160.507, 451.982 1159.585, 452.370 1158.663, 452.758 1157.742, 453.145 1156.820, 453.533 1155.898, 453.920 1154.976, 454.308 1154.054, 454.696 1153.132, 455.083 1152.211, 455.471 1151.289, 455.858 1150.367, 456.246 1149.445, 456.634 1148.523, 457.021 1147.601, 457.409 1146.680, 457.796 1145.758, 458.184 1144.836, 458.571 1143.914, 458.959 1142.992, 459.347 1142.070, 459.734 1141.149, 460.122 1140.227, 460.509 1139.305, 460.897 1138.383, 461.285 1137.461, 461.672 1136.540, 462.060 1135.618, 462.447 1134.696, 462.835 1133.774, 463.223 1132.852, 463.610 1131.930, 463.998 1131.009, 464.385 1130.087, 464.773 1129.165, 465.161 1128.243, 465.548 1127.321, 465.936 1126.399, 466.323 1125.478, 466.711 1124.556, 467.099 1123.634, 467.486 1122.712, 467.874 1121.790, 468.261 1120.868, 468.649 1119.947, 469.037 1119.025, 469.424 1118.103, 469.812 1117.181, 470.199 1116.259, 470.587 1115.337, 470.975 1114.416, 471.362 1113.494, 471.750 1112.572, 472.137 1111.650, 472.525 1110.728, 472.912 1109.806, 473.300 1108.885, 473.688 1107.963, 474.075 1107.041, 474.463 1106.119, 474.850 1105.197, 475.238 1104.276, 475.626 1103.354, 476.013 1102.432, 476.401 1101.510, 476.788 1100.588, 477.176 1099.666, 477.564 1098.745, 477.951 1097.823, 478.339 1096.901, 478.726 1095.979, 479.114 1095.057, 479.502 1094.135, 479.889 1093.214, 480.277 1092.292, 480.664 1091.370, 481.052 1090.448, 481.440 1089.526, 481.827 1088.604, 482.215 1087.682, 482.602 1086.761, 482.990 1085.839, 483.378 1084.917, 483.765 1083.995, 484.153 1083.073, 484.540 1082.151, 484.928 1081.230, 485.316 1080.308, 485.703 1079.386, 486.091 1078.464, 486.478 1077.542, 486.866 1076.621, 487.253 1075.699, 487.641 1074.777, 488.029 1073.855, 488.416 1072.933, 488.804 1072.011, 489.191 1071.090, 489.579 1070.168, 489.967 1069.246, 490.354 1068.324, 490.742 1067.402, 491.129 1066.480, 491.517 1065.559, 491.905 1064.637, 492.292 1063.715, 492.680 1062.793, 493.067 1061.871, 493.455 1060.949, 493.843 1060.028, 494.230 1059.106, 494.618 1058.184, 495.005 1057.262, 495.393 1054.267, 496.652 1053.268, 496.602 1052.269, 496.551 1051.271, 496.500 1050.272, 496.450 1049.273, 496.399 1048.274, 496.348 1047.276, 496.298 1046.277, 496.247 1045.278, 496.196 1044.279, 496.146 1043.281, 496.095 1042.282, 496.044 1041.283, 495.994 1040.285, 495.943 1039.286, 495.892 1038.287, 495.841 1037.288, 495.791 1036.290, 495.740 1035.291, 495.689 1034.292, 495.639 1033.294, 495.588 1032.295, 495.537 1031.296, 495.487 1030.297, 495.436 1029.299, 495.385 1028.300, 495.335 1027.301, 495.284 1026.303, 495.233 1025.304, 495.183 1024.305, 495.132 1023.306, 495.081 1022.308, 495.031 1021.309, 494.980 1020.310, 494.929 1019.312, 494.878 1018.313, 494.828 1017.314, 494.777 1016.315, 494.726 1015.317, 494.676 1014.318, 494.625 1013.319, 494.574 1012.321, 494.524 1011.322, 494.473 1010.323, 494.422 1009.324, 494.372 1008.326, 494.321 1007.327, 494.270 1006.328, 494.220 1005.330, 494.169 1004.331, 494.118 1003.332, 494.067 1002.333, 494.017 1001.335, 493.966 1000.336, 493.915 999.337, 493.865 998.339, 493.814 997.340, 493.763 996.341, 493.713 995.342, 493.662 994.344, 493.611 993.345, 493.561 992.346, 493.510 991.348, 493.459 990.349, 493.409 989.350, 493.358 988.351, 493.307 987.353, 493.256 986.354, 493.206 985.355, 493.155 984.357, 493.104 983.358, 493.054 982.359, 493.003 981.360, 492.952 980.362, 492.902 979.363, 492.851 978.364, 492.800 977.366, 492.750 976.367, 492.699 975.368, 492.648 974.369, 492.598 973.371, 492.547 972.372, 492.496 971.373, 492.445 970.375, 492.395 969.376, 492.344 968.377, 492.293 967.378, 492.243 966.380, 492.192 964.903, 492.117 963.904, 492.066 962.905, 492.016 961.907, 491.965 960.908, 491.914 959.909, 491.864 958.910, 491.813 957.912, 491.762 956.913, 491.712 955.914, 491.661 954.916, 491.610 953.917, 491.560 952.918, 491.509 951.919, 491.458 950.921, 491.407 949.922, 491.357 948.923, 491.306 947.925, 491.255 946.926, 491.205 945.927, 491.154 944.928, 491.103 943.930, 491.053 942.931, 491.002 941.932, 490.951 940.934, 490.901 939.935, 490.850 938.936, 490.799 937.937, 490.749 936.939, 490.698 935.940, 490.647 934.941, 490.596 933.943, 490.546 932.944, 490.495 931.945, 490.444 930.946, 490.394 929.948, 490.343 928.949, 490.292 927.950, 490.242 926.952, 490.191 925.953, 490.140 924.954, 490.090 923.955, 490.039 922.957, 489.988 921.958, 489.938 920.959, 489.887 919.961, 489.836 918.962, 489.785 917.963, 489.735 916.964, 489.684 915.966, 489.633 914.967, 489.583 913.968, 489.532 912.970, 489.481 911.971, 489.431 910.972, 489.380 909.973, 489.329 908.975, 489.279 907.976, 489.228 906.977, 489.177 905.979, 489.127 904.980, 489.076 903.981, 489.025 902.982, 488.974 901.984, 488.924 900.985, 488.873 899.986, 488.822 898.988, 488.772 897.989, 488.721 896.990, 488.670 895.991, 488.620 894.993, 488.569 893.994, 488.518 892.995, 488.468 891.997, 488.417 890.998, 488.366 889.999, 488.316 889.000, 488.265 888.002, 488.214 887.003, 488.164 886.004, 488.113 885.006, 488.062 884.007, 488.011 883.008, 487.961 882.009, 487.910 881.011, 487.859 880.012, 487.809 879.013, 487.758 878.015, 487.707 876.129, 487.612 875.130, 487.561 874.132, 487.510 873.133, 487.460 872.134, 487.409 871.136, 487.358 870.137, 487.307 869.138, 487.257 868.140, 487.206 867.141, 487.155 866.142, 487.105 865.143, 487.054 864.145, 487.003 863.146, 486.953 862.147, 486.902 861.148, 486.851 860.913, 486.839 859.914, 486.789 858.915, 486.738 857.917, 486.687 856.961, 486.639 855.962, 486.588 854.964, 486.537 853.965, 486.487 852.966, 486.436 851.968, 486.385 850.969, 486.335 849.970, 486.284 848.971, 486.233 847.973, 486.183 846.974, 486.132 845.975, 486.081 844.977, 486.031 843.978, 485.980 842.979, 485.929 841.980, 485.878 840.982, 485.828 839.983, 485.777 838.984, 485.726 837.986, 485.676 836.987, 485.625 835.988, 485.574 834.989, 485.524 833.991, 485.473 832.992, 485.422 831.993, 485.372 830.995, 485.321 829.996, 485.270 828.997, 485.220 827.998, 485.169 827.000, 485.118 826.001, 485.068 825.002, 485.017 824.004, 484.966 823.005, 484.915 822.006, 484.865 821.007, 484.814 820.009, 484.763 819.010, 484.713 818.011, 484.662 817.013, 484.611 816.014, 484.561 815.015, 484.510 814.016, 484.459 813.018, 484.409 812.019, 484.358 811.020, 484.307 810.022, 484.257 809.023, 484.206 808.024, 484.155 807.025, 484.104 806.027, 484.054 805.028, 484.003 804.029, 483.952 803.031, 483.902 802.032, 483.851 801.033, 483.800 800.034, 483.750 799.036, 483.699 798.037, 483.648 797.038, 483.598 796.040, 483.547 795.041, 483.496 794.042, 483.445 793.043, 483.395 792.045, 483.344 791.046, 483.293 790.047, 483.243 789.049, 483.192 787.940, 483.136 " />
            <path fill="none" stroke-width="1.0" stroke-linecap="butt" stroke-opacity="1.0" stroke="rgb(0, 0, 0)" stroke-linejoin="round" d=" M 780.396, 477.767 780.925, 478.616 781.454, 479.465 781.982, 480.314 782.511, 481.162 783.040, 482.011 783.569, 482.860 784.098, 483.708 784.627, 484.557 785.155, 485.406 785.684, 486.255 786.213, 487.103 786.742, 487.952 787.271, 488.801 787.799, 489.650 788.328, 490.498 788.857, 491.347 789.386, 492.196 789.915, 493.045 790.443, 493.893 790.972, 494.742 791.501, 495.591 792.030, 496.440 792.559, 497.288 793.087, 498.137 793.616, 498.986 794.145, 499.835 794.674, 500.683 795.203, 501.532 795.731, 502.381 796.194, 503.123 " />
            <path fill="none" stroke-width="1.0" stroke-linecap="butt" stroke-opacity="1.0" stroke="rgb(0, 0, 0)" stroke-linejoin="round" d=" M 1041.833, 378.812 1040.897, 379.166 1039.962, 379.520 1039.027, 379.874 1038.092, 380.228 1037.156, 380.582 1036.221, 380.936 1035.286, 381.290 1034.351, 381.644 1033.415, 381.998 1032.480, 382.352 1031.545, 382.706 1030.610, 383.060 1029.674, 383.414 1028.739, 383.768 1027.804, 384.122 1026.869, 384.476 1025.933, 384.830 1024.998, 385.184 1024.063, 385.538 1023.128, 385.892 1022.192, 386.246 1021.257, 386.600 1020.322, 386.954 1019.387, 387.308 1018.451, 387.662 1017.516, 388.016 1016.581, 388.370 1015.646, 388.724 1014.710, 389.078 1013.775, 389.432 1012.840, 389.786 1011.905, 390.140 1010.969, 390.494 1010.034, 390.848 1009.099, 391.202 1008.164, 391.556 1007.228, 391.910 1006.293, 392.264 1005.358, 392.618 1004.423, 392.972 1003.487, 393.326 1002.552, 393.680 1001.617, 394.034 1000.682, 394.388 999.746, 394.742 998.811, 395.096 997.876, 395.450 996.941, 395.804 996.005, 396.158 995.070, 396.512 994.135, 396.866 993.200, 397.220 992.264, 397.574 991.329, 397.928 990.394, 398.282 989.459, 398.636 988.523, 398.990 987.588, 399.344 986.653, 399.698 985.718, 400.052 984.782, 400.406 983.847, 400.760 982.912, 401.114 981.977, 401.468 981.042, 401.822 980.106, 402.176 979.171, 402.530 978.236, 402.884 977.301, 403.238 976.365, 403.592 975.430, 403.946 974.495, 404.300 973.560, 404.654 972.624, 405.008 971.689, 405.362 970.754, 405.716 969.819, 406.070 968.883, 406.424 967.948, 406.778 967.013, 407.132 966.078, 407.486 965.142, 407.840 964.207, 408.194 963.272, 408.547 962.337, 408.901 961.401, 409.255 960.466, 409.609 959.531, 409.964 958.596, 410.318 957.660, 410.672 956.725, 411.026 955.790, 411.380 954.855, 411.734 953.919, 412.087 952.984, 412.441 952.049, 412.795 951.114, 413.149 950.178, 413.503 949.243, 413.857 948.308, 414.211 947.373, 414.565 946.437, 414.919 945.502, 415.273 944.567, 415.627 943.632, 415.981 942.696, 416.335 941.761, 416.689 940.826, 417.043 939.891, 417.397 938.955, 417.751 938.020, 418.105 937.085, 418.459 936.150, 418.813 935.214, 419.167 934.279, 419.521 933.344, 419.875 932.409, 420.229 931.473, 420.583 930.538, 420.937 929.603, 421.291 928.668, 421.645 927.732, 421.999 926.797, 422.353 925.862, 422.707 924.927, 423.061 923.992, 423.415 923.056, 423.769 922.121, 424.123 921.186, 424.477 920.250, 424.831 919.315, 425.185 918.380, 425.539 917.445, 425.893 916.510, 426.247 915.574, 426.601 914.639, 426.955 913.704, 427.309 912.769, 427.663 911.833, 428.017 910.898, 428.371 909.963, 428.725 909.028, 429.079 908.092, 429.433 907.157, 429.787 906.222, 430.141 905.287, 430.495 904.351, 430.849 903.416, 431.203 902.481, 431.557 901.546, 431.911 900.610, 432.265 899.675, 432.619 898.740, 432.973 897.805, 433.327 896.869, 433.681 895.934, 434.035 894.999, 434.389 894.064, 434.743 893.128, 435.097 892.193, 435.451 891.258, 435.805 890.323, 436.159 889.387, 436.513 888.452, 436.867 887.517, 437.221 886.582, 437.575 885.646, 437.929 884.711, 438.283 883.776, 438.637 882.841, 438.991 881.905, 439.345 880.970, 439.699 880.035, 440.053 879.100, 440.407 878.164, 440.761 877.229, 441.115 876.294, 441.469 875.359, 441.823 874.423, 442.177 873.488, 442.531 872.553, 442.885 871.618, 443.239 870.682, 443.593 869.747, 443.947 868.812, 444.301 867.877, 444.655 866.941, 445.009 866.006, 445.363 865.071, 445.717 864.136, 446.071 863.201, 446.425 862.265, 446.779 861.330, 447.133 860.395, 447.487 859.459, 447.841 858.524, 448.195 857.589, 448.549 856.654, 448.903 855.719, 449.257 854.783, 449.611 853.848, 449.965 852.913, 450.319 851.978, 450.673 851.042, 451.027 850.107, 451.381 849.172, 451.735 848.237, 452.089 847.301, 452.443 846.366, 452.797 845.431, 453.151 844.496, 453.505 843.560, 453.859 842.625, 454.213 841.690, 454.567 840.755, 454.921 839.819, 455.275 838.884, 455.629 837.949, 455.983 837.014, 456.337 836.078, 456.691 835.143, 457.045 834.208, 457.399 833.273, 457.753 832.337, 458.107 831.402, 458.461 830.467, 458.815 829.532, 459.169 828.596, 459.523 827.661, 459.877 826.726, 460.231 825.791, 460.585 824.855, 460.939 823.920, 461.293 822.985, 461.647 822.050, 462.001 821.114, 462.355 820.179, 462.709 819.244, 463.063 818.309, 463.417 817.373, 463.771 816.438, 464.125 815.503, 464.479 814.568, 464.833 813.632, 465.187 812.697, 465.541 811.762, 465.895 810.827, 466.249 809.891, 466.603 808.956, 466.957 808.021, 467.311 807.086, 467.665 806.150, 468.019 805.215, 468.373 804.280, 468.727 803.345, 469.081 802.409, 469.435 801.474, 469.789 800.539, 470.143 799.604, 470.497 798.668, 470.851 797.733, 471.205 796.798, 471.559 795.863, 471.913 794.927, 472.267 793.992, 472.621 793.057, 472.975 792.122, 473.329 791.187, 473.683 790.251, 474.037 789.316, 474.391 788.381, 474.745 787.445, 475.099 786.510, 475.453 785.575, 475.807 784.640, 476.161 783.705, 476.515 780.396, 477.767 " />
            <path fill="none" stroke-width="1.0" stroke-linecap="butt" stroke-opacity="1.0" stroke="rgb(0, 0, 0)" stroke-linejoin="round" d=" M 1192.459, 388.889 1191.460, 388.844 1190.461, 388.800 1189.462, 388.755 1188.463, 388.711 1187.464, 388.666 1186.465, 388.622 1185.466, 388.577 1184.467, 388.533 1183.468, 388.488 1182.469, 388.444 1181.470, 388.399 1180.471, 388.355 1179.472, 388.310 1178.473, 388.266 1177.474, 388.221 1176.475, 388.177 1175.476, 388.132 1174.477, 388.088 1173.478, 388.043 1172.479, 387.999 1171.480, 387.954 1170.481, 387.910 1169.482, 387.865 1168.483, 387.821 1167.484, 387.776 1166.485, 387.732 1165.486, 387.687 1164.487, 387.643 1163.488, 387.598 1162.489, 387.554 1161.490, 387.509 1160.491, 387.465 1159.492, 387.420 1158.493, 387.376 1157.494, 387.331 1156.495, 387.287 1155.496, 387.242 1154.497, 387.198 1153.498, 387.153 1152.499, 387.109 1151.500, 387.064 1150.501, 387.020 1149.502, 386.975 1148.503, 386.931 1147.504, 386.886 1146.505, 386.842 1145.506, 386.797 1144.507, 386.753 1143.508, 386.708 1142.509, 386.664 1141.510, 386.619 1140.511, 386.575 1139.512, 386.530 1138.513, 386.486 1137.514, 386.441 1136.515, 386.397 1135.516, 386.352 1134.517, 386.308 1133.518, 386.263 1132.519, 386.219 1131.242, 386.162 1130.243, 386.117 1129.244, 386.073 1128.245, 386.028 1127.246, 385.984 1126.247, 385.939 1125.248, 385.895 1124.249, 385.850 1123.250, 385.806 1122.250, 385.761 1121.251, 385.717 1120.252, 385.672 1119.254, 385.628 1118.255, 385.583 1117.255, 385.539 1116.256, 385.494 1115.257, 385.450 1114.258, 385.405 1113.259, 385.361 1112.260, 385.316 1111.261, 385.272 1110.262, 385.227 1109.263, 385.183 1108.264, 385.138 1107.265, 385.094 1106.266, 385.049 1105.267, 385.005 1104.268, 384.960 1103.269, 384.916 1102.270, 384.871 1101.271, 384.827 1100.272, 384.782 1099.273, 384.738 1098.274, 384.693 1097.275, 384.649 1096.276, 384.604 1095.277, 384.560 1094.278, 384.515 1093.279, 384.471 1092.280, 384.426 1091.281, 384.382 1090.282, 384.337 1089.283, 384.293 1088.284, 384.248 1087.285, 384.204 1086.286, 384.159 1085.287, 384.115 1084.288, 384.070 1083.289, 384.026 1082.290, 383.981 1081.291, 383.937 1080.292, 383.892 1079.293, 383.848 1078.294, 383.803 1077.295, 383.759 1076.296, 383.714 1075.297, 383.670 1074.298, 383.625 1073.299, 383.581 1072.300, 383.536 1071.301, 383.492 1070.302, 383.447 1069.303, 383.403 1068.304, 383.358 1067.305, 383.314 1066.306, 383.269 1065.307, 383.225 1064.308, 383.180 1063.309, 383.136 1062.310, 383.091 1061.311, 383.047 1060.312, 383.002 1059.313, 382.958 1058.314, 382.913 1057.315, 382.869 1056.316, 382.824 1055.317, 382.780 1054.318, 382.735 1053.319, 382.691 1052.320, 382.646 1051.321, 382.602 1050.322, 382.557 1049.056, 382.501 1048.121, 382.856 1047.186, 383.212 1046.252, 383.568 1045.317, 383.923 1044.383, 384.279 1043.448, 384.635 1042.513, 384.991 1041.605, 385.336 1041.342, 385.436 1040.407, 385.792 1039.473, 386.148 1038.538, 386.504 1037.604, 386.859 1036.669, 387.215 1035.734, 387.571 1034.800, 387.926 1033.865, 388.282 1032.931, 388.638 1031.996, 388.994 1031.061, 389.349 1030.127, 389.705 1029.192, 390.061 1028.258, 390.416 1027.323, 390.772 1026.388, 391.128 1025.454, 391.484 1024.519, 391.839 1023.585, 392.195 1022.650, 392.551 1021.715, 392.906 1020.781, 393.262 1019.846, 393.618 1018.912, 393.973 1017.977, 394.329 1017.042, 394.685 1016.108, 395.041 1015.173, 395.396 1014.239, 395.752 1013.304, 396.108 1012.369, 396.463 1011.435, 396.819 1010.500, 397.175 1009.566, 397.531 1008.631, 397.886 1007.696, 398.242 1006.762, 398.598 1005.827, 398.953 1004.893, 399.309 1003.958, 399.665 1003.023, 400.020 1002.089, 400.376 1001.154, 400.732 1000.220, 401.088 999.285, 401.443 998.350, 401.799 997.416, 402.155 996.481, 402.510 995.547, 402.866 994.612, 403.222 993.677, 403.578 992.743, 403.933 991.808, 404.289 990.874, 404.645 989.939, 405.000 989.004, 405.356 988.070, 405.712 987.135, 406.068 986.201, 406.423 985.266, 406.779 984.331, 407.135 983.397, 407.490 982.462, 407.846 981.528, 408.202 980.593, 408.557 979.658, 408.913 978.724, 409.269 977.789, 409.625 976.855, 409.980 975.920, 410.336 974.985, 410.692 974.051, 411.047 973.116, 411.403 972.182, 411.759 971.247, 412.115 970.312, 412.470 969.378, 412.826 968.443, 413.182 967.509, 413.537 966.574, 413.893 965.640, 414.249 964.705, 414.604 963.770, 414.960 962.836, 415.316 961.901, 415.672 960.967, 416.027 960.032, 416.383 959.097, 416.739 958.163, 417.094 957.228, 417.450 956.294, 417.806 955.359, 418.162 954.424, 418.517 953.490, 418.873 952.555, 419.229 951.621, 419.584 950.686, 419.940 949.751, 420.296 948.817, 420.651 947.882, 421.007 946.948, 421.363 946.013, 421.719 945.078, 422.074 944.144, 422.430 943.209, 422.786 942.275, 423.141 941.340, 423.497 940.405, 423.853 939.471, 424.209 938.536, 424.564 937.602, 424.920 936.667, 425.276 935.732, 425.631 934.798, 425.987 933.863, 426.343 932.929, 426.698 931.994, 427.054 931.059, 427.410 930.125, 427.766 929.190, 428.121 928.256, 428.477 927.321, 428.833 926.386, 429.188 925.452, 429.544 924.517, 429.900 923.583, 430.256 922.648, 430.611 921.713, 430.967 920.779, 431.323 919.844, 431.678 918.910, 432.034 917.975, 432.390 917.040, 432.745 916.106, 433.101 915.171, 433.457 914.237, 433.813 913.302, 434.168 912.367, 434.524 911.433, 434.880 910.498, 435.235 909.564, 435.591 908.629, 435.947 907.694, 436.303 906.760, 436.658 905.825, 437.014 904.891, 437.370 903.956, 437.725 903.021, 438.081 902.087, 438.437 901.152, 438.793 900.218, 439.148 899.283, 439.504 898.348, 439.860 897.414, 440.215 896.479, 440.571 895.545, 440.927 894.610, 441.282 893.675, 441.638 892.741, 441.994 891.806, 442.350 890.872, 442.705 889.937, 443.061 889.003, 443.417 888.068, 443.772 887.133, 444.128 886.199, 444.484 885.264, 444.840 884.330, 445.195 883.395, 445.551 882.460, 445.907 881.526, 446.262 880.591, 446.618 879.657, 446.974 878.722, 447.330 877.787, 447.685 876.853, 448.041 875.918, 448.397 874.984, 448.752 874.049, 449.108 873.114, 449.464 872.180, 449.819 871.245, 450.175 870.311, 450.531 869.376, 450.887 868.441, 451.242 867.507, 451.598 866.572, 451.954 865.638, 452.309 864.703, 452.665 863.768, 453.021 862.834, 453.377 861.899, 453.732 860.965, 454.088 860.030, 454.444 859.095, 454.799 858.161, 455.155 857.226, 455.511 856.292, 455.866 855.357, 456.222 854.422, 456.578 853.488, 456.934 852.553, 457.289 851.619, 457.645 850.684, 458.001 849.749, 458.356 848.815, 458.712 847.880, 459.068 846.946, 459.424 846.011, 459.779 845.076, 460.135 844.142, 460.491 843.207, 460.846 842.273, 461.202 841.338, 461.558 840.403, 461.913 839.469, 462.269 838.534, 462.625 837.600, 462.981 836.665, 463.336 835.730, 463.692 834.796, 464.048 833.861, 464.403 832.927, 464.759 831.992, 465.115 831.057, 465.471 830.123, 465.826 829.188, 466.182 828.254, 466.538 827.319, 466.893 826.384, 467.249 825.450, 467.605 824.515, 467.961 823.581, 468.316 822.646, 468.672 821.711, 469.028 820.777, 469.383 819.842, 469.739 818.908, 470.095 817.973, 470.450 817.039, 470.806 816.104, 471.162 815.169, 471.518 814.235, 471.873 813.300, 472.229 812.365, 472.585 811.431, 472.940 810.496, 473.296 809.562, 473.652 808.627, 474.008 807.693, 474.363 806.758, 474.719 805.823, 475.075 804.889, 475.430 803.954, 475.786 803.020, 476.142 802.085, 476.497 801.150, 476.853 800.216, 477.209 799.281, 477.565 798.347, 477.920 797.412, 478.276 796.477, 478.632 795.543, 478.987 794.608, 479.343 793.674, 479.699 792.739, 480.055 791.804, 480.410 790.870, 480.766 789.935, 481.122 787.336, 482.111 787.725, 483.032 788.113, 483.954 788.502, 484.875 788.890, 485.797 789.279, 486.718 789.667, 487.640 790.055, 488.561 790.444, 489.483 790.832, 490.404 791.221, 491.326 791.609, 492.247 791.998, 493.168 792.386, 494.090 792.774, 495.011 793.163, 495.933 793.551, 496.854 793.940, 497.776 794.328, 498.697 794.717, 499.619 795.105, 500.540 795.494, 501.462 795.882, 502.383 796.194, 503.123 796.336, 503.460 796.724, 504.381 797.113, 505.303 797.501, 506.224 797.871, 507.102 " />
            <path fill="none" stroke-width="1.0" stroke-linecap="butt" stroke-opacity="1.0" stroke="rgb(0, 0, 0)" stroke-linejoin="round" d=" M 781.807, 374.885 781.794, 375.885 781.780, 376.885 781.766, 377.885 781.753, 378.884 781.739, 379.884 781.725, 380.884 781.711, 381.884 781.698, 382.884 781.684, 383.884 781.670, 384.884 781.656, 385.884 781.643, 386.884 781.629, 387.884 781.615, 388.883 781.602, 389.883 781.588, 390.883 781.574, 391.883 781.560, 392.883 781.547, 393.883 781.533, 394.883 781.519, 395.883 781.506, 396.883 781.492, 397.883 781.478, 398.883 781.464, 399.883 781.451, 400.882 781.437, 401.882 781.423, 402.882 781.410, 403.882 781.396, 404.882 781.382, 405.882 781.368, 406.882 781.363, 407.266 781.349, 408.266 781.336, 409.266 781.322, 410.266 781.308, 411.266 781.295, 412.266 781.281, 413.265 781.267, 414.265 781.253, 415.265 781.240, 416.265 781.226, 417.265 781.212, 418.265 781.199, 419.265 781.185, 420.265 781.171, 421.265 781.157, 422.265 781.144, 423.265 781.130, 424.264 781.116, 425.264 781.103, 426.264 781.089, 427.264 781.075, 428.264 781.061, 429.264 781.048, 430.264 781.034, 431.264 781.020, 432.264 781.007, 433.264 780.993, 434.263 780.979, 435.263 780.965, 436.263 780.952, 437.263 780.938, 438.263 780.924, 439.263 780.910, 440.263 780.893, 441.505 780.880, 442.505 780.866, 443.505 780.852, 444.505 780.839, 445.505 780.825, 446.505 780.811, 447.505 780.797, 448.505 780.784, 449.505 780.770, 450.504 780.756, 451.504 780.743, 452.504 780.729, 453.504 780.715, 454.504 780.701, 455.504 780.688, 456.504 780.674, 457.504 780.660, 458.504 780.647, 459.504 780.633, 460.504 780.619, 461.503 780.605, 462.503 780.592, 463.503 780.578, 464.503 780.564, 465.503 780.551, 466.503 780.537, 467.503 780.523, 468.503 780.509, 469.503 780.496, 470.503 780.482, 471.503 780.468, 472.502 780.455, 473.502 780.441, 474.502 780.427, 475.502 780.413, 476.502 780.396, 477.767 779.852, 478.273 " />
            <path fill="none" stroke-width="1.0" stroke-linecap="butt" stroke-opacity="1.0" stroke="rgb(0, 0, 0)" stroke-linejoin="round" d=" M 1041.605, 385.336 1041.640, 384.337 1041.675, 383.337 1041.710, 382.338 1041.745, 381.339 1041.779, 380.339 1041.814, 379.340 1041.833, 378.812 1041.627, 377.833 1041.422, 376.854 1041.217, 375.875 1041.012, 374.897 1040.807, 373.918 1040.602, 372.939 1040.397, 371.961 1040.192, 370.982 1039.987, 370.003 1039.782, 369.024 1039.577, 368.046 1039.371, 367.067 1039.166, 366.088 1038.961, 365.109 1038.756, 364.131 1038.551, 363.152 1038.346, 362.173 1038.141, 361.194 1037.936, 360.216 1037.731, 359.237 1037.526, 358.258 1037.321, 357.279 1037.115, 356.301 1036.910, 355.322 1036.705, 354.343 1036.500, 353.364 1036.295, 352.386 1036.090, 351.407 1035.885, 350.428 1035.680, 349.449 1035.475, 348.471 1035.363, 347.936 1035.158, 346.958 1034.953, 345.979 1034.748, 345.000 1034.542, 344.021 1034.337, 343.043 1034.132, 342.064 1033.927, 341.085 1033.722, 340.106 1033.517, 339.128 1033.312, 338.149 1033.107, 337.170 1032.902, 336.191 1032.697, 335.213 1032.492, 334.234 1032.286, 333.255 1032.081, 332.276 1031.876, 331.298 1031.671, 330.319 1031.466, 329.340 1031.261, 328.361 1031.056, 327.383 1030.851, 326.404 1030.646, 325.425 1030.441, 324.446 1030.236, 323.468 1030.031, 322.489 1029.826, 321.510 1029.620, 320.531 1029.415, 319.553 1029.227, 318.655 1029.022, 317.677 1028.817, 316.698 1028.612, 315.719 1028.407, 314.740 1028.202, 313.762 1027.997, 312.783 1027.792, 311.804 1027.587, 310.825 1027.381, 309.847 1027.176, 308.868 1026.971, 307.889 1026.766, 306.910 1026.561, 305.932 1026.356, 304.953 1026.151, 303.974 1025.946, 302.995 1025.741, 302.017 1025.536, 301.038 1025.331, 300.059 1025.126, 299.080 1024.921, 298.102 1024.715, 297.123 1024.510, 296.144 1024.305, 295.165 1024.100, 294.187 1023.895, 293.208 1023.690, 292.229 1023.485, 291.250 1023.401, 290.848 1023.917, 289.992 1024.433, 289.135 1024.949, 288.279 1025.465, 287.422 1025.981, 286.565 1026.497, 285.709 1027.013, 284.852 1027.529, 283.996 1028.045, 283.139 1028.561, 282.282 1029.077, 281.426 1029.593, 280.569 1030.109, 279.713 1030.625, 278.856 1031.141, 277.999 1031.656, 277.143 1032.172, 276.286 1032.688, 275.430 1033.204, 274.573 1033.721, 273.716 1034.237, 272.860 1034.753, 272.003 1035.269, 271.147 1035.785, 270.290 1036.301, 269.434 1036.817, 268.577 1037.333, 267.720 1037.849, 266.864 1038.365, 266.007 1038.880, 265.151 1039.396, 264.294 1039.912, 263.437 1040.428, 262.581 1040.944, 261.724 1041.460, 260.868 1041.976, 260.011 1042.492, 259.154 1043.008, 258.298 1043.524, 257.441 1044.040, 256.585 1044.556, 255.728 1045.072, 254.872 1045.588, 254.015 1046.104, 253.158 1046.620, 252.302 1047.136, 251.445 1047.652, 250.589 1048.168, 249.732 1048.684, 248.875 1049.200, 248.019 1049.716, 247.162 1050.232, 246.306 1050.748, 245.449 1051.264, 244.592 1051.780, 243.736 1052.296, 242.879 1052.812, 242.023 1053.328, 241.166 1053.844, 240.309 1054.360, 239.453 1054.876, 238.596 1055.392, 237.740 1055.908, 236.883 1056.424, 236.027 1056.810, 235.386 1056.180, 235.164 1055.231, 235.481 1054.283, 235.797 1053.334, 236.113 1052.385, 236.430 1051.437, 236.746 1050.488, 237.062 1049.539, 237.378 1048.591, 237.695 1047.642, 238.011 1046.693, 238.327 1045.745, 238.643 1044.796, 238.960 1043.847, 239.276 1042.899, 239.592 1041.950, 239.909 1041.001, 240.225 1040.053, 240.541 1039.104, 240.857 1038.155, 241.174 1037.207, 241.490 1036.258, 241.806 1035.309, 242.122 1034.361, 242.439 1033.412, 242.755 1032.463, 243.071 1031.515, 243.388 1030.566, 243.704 1029.617, 244.020 1028.669, 244.336 1027.720, 244.653 1026.771, 244.969 1025.823, 245.285 1024.874, 245.601 1023.925, 245.918 1022.977, 246.234 1022.028, 246.550 1021.079, 246.867 1020.131, 247.183 1019.182, 247.499 1018.233, 247.815 1017.285, 248.132 1016.336, 248.448 1015.387, 248.764 1014.439, 249.080 1013.490, 249.397 1012.541, 249.713 1011.593, 250.029 1010.644, 250.346 1009.695, 250.662 1008.747, 250.978 1007.798, 251.294 1006.849, 251.611 1005.901, 251.927 1004.952, 252.243 1004.003, 252.559 1003.055, 252.876 1002.106, 253.192 1001.157, 253.508 1000.209, 253.825 999.260, 254.141 998.311, 254.457 997.363, 254.773 996.414, 255.090 995.465, 255.406 994.517, 255.722 993.568, 256.038 992.619, 256.355 991.671, 256.671 990.722, 256.987 989.773, 257.304 988.825, 257.620 987.876, 257.936 986.927, 258.252 985.979, 258.569 985.030, 258.885 984.081, 259.201 983.133, 259.517 982.184, 259.834 981.235, 260.150 980.287, 260.466 979.338, 260.783 978.389, 261.099 977.441, 261.415 976.492, 261.731 975.543, 262.048 974.595, 262.364 973.646, 262.680 972.697, 262.996 971.749, 263.313 970.800, 263.629 969.851, 263.945 968.903, 264.262 967.954, 264.578 967.005, 264.894 966.057, 265.210 965.108, 265.527 964.159, 265.843 963.211, 266.159 962.262, 266.475 961.313, 266.792 960.365, 267.108 959.416, 267.424 958.467, 267.741 957.518, 268.057 956.570, 268.373 955.621, 268.689 954.672, 269.006 953.724, 269.322 952.775, 269.638 951.826, 269.955 950.878, 270.271 949.929, 270.587 948.980, 270.903 948.032, 271.220 947.083, 271.536 946.135, 271.852 945.186, 272.168 944.237, 272.485 943.289, 272.801 942.340, 273.117 941.391, 273.434 940.443, 273.750 939.494, 274.066 938.545, 274.382 937.596, 274.699 936.648, 275.015 935.699, 275.331 934.750, 275.647 933.802, 275.964 932.853, 276.280 931.904, 276.596 930.956, 276.913 930.007, 277.229 929.058, 277.545 928.110, 277.861 927.161, 278.178 926.212, 278.494 925.264, 278.810 924.315, 279.126 923.366, 279.443 922.418, 279.759 921.469, 280.075 920.520, 280.392 919.572, 280.708 918.623, 281.024 917.674, 281.340 916.726, 281.657 915.777, 281.973 914.828, 282.289 913.880, 282.605 912.931, 282.922 911.982, 283.238 911.034, 283.554 910.085, 283.871 909.136, 284.187 908.188, 284.503 907.239, 284.819 906.290, 285.136 905.342, 285.452 904.393, 285.768 903.444, 286.084 902.496, 286.401 901.547, 286.717 900.598, 287.033 899.650, 287.350 898.701, 287.666 897.752, 287.982 896.804, 288.298 895.855, 288.615 894.906, 288.931 893.958, 289.247 893.009, 289.563 892.060, 289.880 891.112, 290.196 890.163, 290.512 889.214, 290.829 888.266, 291.145 887.317, 291.461 886.368, 291.777 885.420, 292.094 884.471, 292.410 883.522, 292.726 882.574, 293.042 881.625, 293.359 880.676, 293.675 879.728, 293.991 878.779, 294.308 877.830, 294.624 876.882, 294.940 875.933, 295.256 874.984, 295.573 874.036, 295.889 873.087, 296.205 872.138, 296.521 871.190, 296.838 870.241, 297.154 869.292, 297.470 868.344, 297.787 867.395, 298.103 866.446, 298.419 865.498, 298.735 864.549, 299.052 863.600, 299.368 862.652, 299.684 861.703, 300.001 860.754, 300.317 859.806, 300.633 858.857, 300.949 857.908, 301.266 856.960, 301.582 856.011, 301.898 855.062, 302.214 854.114, 302.531 853.165, 302.847 852.216, 303.163 851.268, 303.480 850.319, 303.796 849.370, 304.112 848.422, 304.428 847.473, 304.745 846.524, 305.061 845.576, 305.377 844.627, 305.693 843.678, 306.010 842.730, 306.326 841.781, 306.642 840.832, 306.959 839.884, 307.275 838.935, 307.591 837.986, 307.907 837.038, 308.224 836.089, 308.540 835.140, 308.856 834.192, 309.172 833.243, 309.489 832.294, 309.805 831.346, 310.121 830.397, 310.438 829.448, 310.754 828.500, 311.070 827.551, 311.386 826.602, 311.703 825.654, 312.019 824.705, 312.335 823.756, 312.651 822.808, 312.968 821.859, 313.284 820.910, 313.600 817.918, 314.598 817.404, 315.456 816.891, 316.314 816.377, 317.171 815.863, 318.029 815.349, 318.887 814.835, 319.745 814.321, 320.603 813.807, 321.461 813.294, 322.319 812.780, 323.177 812.266, 324.034 811.752, 324.892 811.238, 325.750 810.724, 326.608 810.211, 327.466 809.697, 328.324 809.183, 329.182 808.669, 330.040 808.155, 330.897 807.641, 331.755 807.127, 332.613 806.614, 333.471 806.100, 334.329 805.586, 335.187 805.072, 336.045 804.558, 336.903 804.044, 337.760 803.530, 338.618 803.017, 339.476 802.503, 340.334 801.989, 341.192 801.475, 342.050 800.961, 342.908 800.447, 343.766 799.933, 344.624 799.420, 345.481 798.906, 346.339 798.392, 347.197 797.878, 348.055 797.364, 348.913 796.850, 349.771 796.336, 350.629 795.823, 351.487 795.309, 352.344 794.795, 353.202 794.281, 354.060 793.767, 354.918 793.253, 355.776 792.739, 356.634 792.226, 357.492 791.712, 358.350 791.198, 359.207 790.684, 360.065 790.170, 360.923 789.656, 361.781 789.142, 362.639 788.629, 363.497 788.115, 364.355 787.601, 365.213 787.087, 366.070 786.573, 366.928 786.059, 367.786 785.545, 368.644 785.032, 369.502 784.518, 370.360 784.004, 371.218 783.490, 372.076 782.976, 372.933 782.462, 373.791 781.807, 374.885 781.735, 375.882 781.715, 376.160 781.696, 377.159 781.678, 378.159 781.660, 379.159 781.642, 380.159 781.624, 381.159 781.605, 382.159 781.587, 383.159 781.569, 384.158 781.551, 385.158 781.532, 386.158 781.514, 387.158 781.496, 388.158 781.478, 389.157 781.459, 390.157 781.441, 391.157 781.423, 392.157 781.405, 393.157 781.386, 394.157 781.368, 395.156 781.350, 396.156 781.332, 397.156 781.313, 398.156 781.295, 399.156 781.277, 400.156 781.259, 401.156 781.240, 402.155 781.222, 403.155 781.204, 404.155 781.186, 405.155 781.167, 406.155 781.149, 407.154 781.128, 408.300 781.110, 409.300 781.092, 410.300 781.074, 411.300 781.055, 412.299 781.037, 413.299 781.019, 414.299 781.001, 415.299 780.982, 416.299 780.964, 417.299 780.946, 418.298 780.928, 419.298 780.909, 420.298 780.891, 421.298 780.873, 422.298 780.855, 423.298 780.836, 424.297 780.818, 425.297 780.800, 426.297 780.782, 427.297 780.763, 428.297 780.745, 429.297 780.727, 430.296 780.709, 431.296 780.691, 432.296 780.672, 433.296 780.654, 434.296 780.636, 435.296 780.618, 436.295 780.599, 437.295 780.581, 438.295 780.563, 439.295 780.545, 440.295 780.526, 441.295 780.508, 442.283 780.490, 443.283 780.472, 444.283 780.454, 445.283 780.435, 446.283 780.417, 447.282 780.399, 448.282 780.381, 449.282 780.362, 450.282 780.344, 451.282 780.326, 452.282 780.308, 453.281 780.289, 454.281 780.271, 455.281 780.253, 456.281 780.235, 457.281 780.216, 458.281 780.198, 459.280 780.180, 460.280 780.162, 461.280 780.143, 462.280 780.125, 463.280 780.107, 464.280 780.089, 465.279 780.071, 466.279 780.052, 467.279 780.034, 468.279 780.016, 469.279 779.998, 470.279 779.979, 471.278 779.961, 472.278 779.943, 473.278 779.925, 474.278 779.906, 475.278 779.888, 476.278 779.870, 477.277 779.852, 478.273 780.382, 479.121 780.912, 479.969 781.442, 480.816 781.972, 481.664 782.502, 482.512 783.032, 483.360 783.562, 484.208 784.092, 485.056 784.622, 485.904 785.152, 486.752 785.682, 487.600 786.212, 488.448 786.742, 489.296 787.272, 490.144 787.802, 490.992 788.332, 491.840 788.862, 492.688 789.392, 493.536 789.922, 494.384 790.452, 495.232 790.982, 496.080 791.512, 496.928 792.042, 497.776 792.572, 498.624 793.102, 499.472 793.632, 500.320 794.162, 501.168 794.692, 502.016 795.222, 502.864 795.752, 503.712 796.282, 504.560 796.812, 505.408 797.342, 506.256 797.871, 507.102 798.823, 506.796 799.775, 506.490 800.727, 506.184 801.679, 505.878 802.631, 505.572 803.583, 505.266 804.535, 504.960 805.487, 504.654 806.439, 504.348 807.391, 504.042 808.343, 503.736 809.295, 503.430 810.248, 503.124 811.200, 502.818 812.152, 502.512 813.104, 502.206 814.056, 501.900 815.008, 501.594 815.960, 501.288 816.912, 500.982 817.864, 500.676 818.816, 500.370 819.768, 500.064 820.720, 499.758 821.672, 499.452 822.624, 499.146 823.576, 498.840 824.528, 498.534 825.480, 498.228 826.432, 497.922 827.384, 497.616 828.336, 497.310 829.288, 497.004 830.240, 496.698 831.192, 496.392 832.144, 496.086 833.096, 495.780 834.048, 495.474 835.000, 495.168 835.952, 494.862 836.904, 494.556 837.856, 494.250 838.809, 493.944 839.761, 493.638 840.713, 493.332 841.665, 493.026 842.617, 492.720 843.569, 492.414 844.521, 492.108 845.473, 491.802 846.425, 491.496 847.377, 491.190 848.329, 490.884 849.281, 490.578 850.233, 490.272 851.185, 489.966 852.137, 489.660 853.089, 489.354 854.041, 489.048 854.993, 488.742 855.945, 488.436 856.897, 488.130 857.849, 487.824 858.801, 487.518 859.753, 487.212 860.913, 486.839 " />
            <path fill="none" stroke-width="1.0" stroke-linecap="butt" stroke-opacity="1.0" stroke="rgb(0, 0, 0)" stroke-linejoin="round" d=" M 1056.810, 235.386 1055.862, 235.702 1054.913, 236.019 1053.964, 236.335 1053.016, 236.652 1052.067, 236.968 1051.118, 237.284 1050.170, 237.601 1049.221, 237.917 1048.272, 238.234 1047.324, 238.550 1046.375, 238.866 1045.427, 239.183 1044.478, 239.499 1043.529, 239.816 1042.581, 240.132 1041.632, 240.448 1040.683, 240.765 1039.735, 241.081 1038.786, 241.398 1037.838, 241.714 1036.889, 242.030 1035.940, 242.347 1034.992, 242.663 1034.043, 242.979 1033.094, 243.296 1032.146, 243.612 1031.197, 243.929 1030.249, 244.245 1029.300, 244.561 1028.351, 244.878 1027.403, 245.194 1026.454, 245.511 1025.505, 245.827 1024.557, 246.143 1023.608, 246.460 1022.660, 246.776 1021.711, 247.093 1020.762, 247.409 1019.814, 247.725 1018.865, 248.042 1017.916, 248.358 1016.968, 248.675 1016.019, 248.991 1015.071, 249.307 1014.122, 249.624 1013.173, 249.940 1012.225, 250.257 1011.276, 250.573 1010.327, 250.889 1009.379, 251.206 1008.430, 251.522 1007.482, 251.839 1006.533, 252.155 1005.584, 252.471 1004.636, 252.788 1003.687, 253.104 1002.738, 253.421 1001.790, 253.737 1000.841, 254.053 999.893, 254.370 998.944, 254.686 997.995, 255.003 997.047, 255.319 996.098, 255.635 995.149, 255.952 994.201, 256.268 993.252, 256.584 992.303, 256.901 991.355, 257.217 990.406, 257.534 989.458, 257.850 988.509, 258.166 987.560, 258.483 986.612, 258.799 985.663, 259.116 984.714, 259.432 983.766, 259.748 982.817, 260.065 981.869, 260.381 980.920, 260.698 979.971, 261.014 979.023, 261.330 978.074, 261.647 977.125, 261.963 976.177, 262.280 975.228, 262.596 974.280, 262.912 973.331, 263.229 972.382, 263.545 971.434, 263.862 970.485, 264.178 969.536, 264.494 968.588, 264.811 967.639, 265.127 966.691, 265.443 965.742, 265.760 964.793, 266.076 963.845, 266.393 962.896, 266.709 961.947, 267.025 960.999, 267.342 960.050, 267.658 959.102, 267.975 958.153, 268.291 957.204, 268.607 956.256, 268.924 955.307, 269.240 954.358, 269.557 953.410, 269.873 952.461, 270.189 951.512, 270.506 950.564, 270.822 949.615, 271.139 948.667, 271.455 947.718, 271.771 946.769, 272.088 945.821, 272.404 944.872, 272.721 943.923, 273.037 942.975, 273.353 942.026, 273.670 941.078, 273.986 940.129, 274.303 939.180, 274.619 938.232, 274.935 937.283, 275.252 936.334, 275.568 935.386, 275.885 934.437, 276.201 933.489, 276.517 932.540, 276.834 931.591, 277.150 930.643, 277.466 929.694, 277.783 928.745, 278.099 927.797, 278.416 926.848, 278.732 925.900, 279.048 924.951, 279.365 924.002, 279.681 923.054, 279.998 922.105, 280.314 921.156, 280.630 920.208, 280.947 919.259, 281.263 918.310, 281.580 917.362, 281.896 916.413, 282.212 915.465, 282.529 914.516, 282.845 913.567, 283.162 912.619, 283.478 911.670, 283.794 910.721, 284.111 909.773, 284.427 908.824, 284.744 907.876, 285.060 906.927, 285.376 905.978, 285.693 905.030, 286.009 904.081, 286.326 903.132, 286.642 902.184, 286.958 901.235, 287.275 900.287, 287.591 899.338, 287.907 898.389, 288.224 897.441, 288.540 896.492, 288.857 895.543, 289.173 894.595, 289.489 893.646, 289.806 892.698, 290.122 891.749, 290.439 890.800, 290.755 889.852, 291.071 888.903, 291.388 887.954, 291.704 887.006, 292.021 886.057, 292.337 885.109, 292.653 884.160, 292.970 883.211, 293.286 882.263, 293.603 881.314, 293.919 880.365, 294.235 879.417, 294.552 878.468, 294.868 877.520, 295.185 876.571, 295.501 875.622, 295.817 874.674, 296.134 873.725, 296.450 872.776, 296.767 871.828, 297.083 870.879, 297.399 869.930, 297.716 868.982, 298.032 868.033, 298.349 867.085, 298.665 866.136, 298.981 865.187, 299.298 864.239, 299.614 863.290, 299.930 862.341, 300.247 861.393, 300.563 860.444, 300.880 859.496, 301.196 858.547, 301.512 857.598, 301.829 856.650, 302.145 855.701, 302.462 854.752, 302.778 853.804, 303.094 852.855, 303.411 851.907, 303.727 850.958, 304.044 850.009, 304.360 849.061, 304.676 848.112, 304.993 847.163, 305.309 846.215, 305.626 845.266, 305.942 844.318, 306.258 843.369, 306.575 842.420, 306.891 841.472, 307.208 840.523, 307.524 839.574, 307.840 838.626, 308.157 837.677, 308.473 836.729, 308.789 835.780, 309.106 834.831, 309.422 833.883, 309.739 832.934, 310.055 831.985, 310.371 831.037, 310.688 830.088, 311.004 829.139, 311.321 828.191, 311.637 827.242, 311.953 826.294, 312.270 825.345, 312.586 824.396, 312.903 823.448, 313.219 822.499, 313.535 821.550, 313.852 818.542, 314.855 818.020, 315.708 817.498, 316.561 816.976, 317.414 816.454, 318.267 815.932, 319.120 815.410, 319.973 814.888, 320.826 814.366, 321.679 813.844, 322.532 813.322, 323.385 812.800, 324.238 812.278, 325.091 811.756, 325.944 811.234, 326.797 810.712, 327.650 810.190, 328.503 809.668, 329.356 809.146, 330.209 808.624, 331.062 808.103, 331.915 807.581, 332.768 807.059, 333.621 806.537, 334.474 806.015, 335.327 805.493, 336.180 804.971, 337.032 804.449, 337.885 803.927, 338.738 803.405, 339.591 802.883, 340.444 802.361, 341.297 801.839, 342.150 801.317, 343.003 800.795, 343.856 800.273, 344.709 799.751, 345.562 799.229, 346.415 798.707, 347.268 798.185, 348.121 797.663, 348.974 797.141, 349.827 796.619, 350.680 796.097, 351.533 795.575, 352.386 795.053, 353.239 794.531, 354.092 794.009, 354.945 793.488, 355.798 792.966, 356.651 792.444, 357.504 791.922, 358.357 791.400, 359.210 790.878, 360.063 790.356, 360.916 789.834, 361.768 789.312, 362.621 788.790, 363.474 788.268, 364.327 787.746, 365.180 787.224, 366.033 786.702, 366.886 786.180, 367.739 785.658, 368.592 785.136, 369.445 784.614, 370.298 784.092, 371.151 783.570, 372.004 783.048, 372.857 782.526, 373.710 781.807, 374.885 782.752, 374.556 783.696, 374.228 784.641, 373.899 785.585, 373.571 786.530, 373.242 787.474, 372.914 788.419, 372.585 789.363, 372.257 790.308, 371.928 791.252, 371.599 792.197, 371.271 793.141, 370.942 794.086, 370.614 795.030, 370.285 795.975, 369.957 796.919, 369.628 797.864, 369.300 798.808, 368.971 799.753, 368.643 800.697, 368.314 801.642, 367.986 802.586, 367.657 803.531, 367.329 804.475, 367.000 805.420, 366.671 806.364, 366.343 807.309, 366.014 808.253, 365.686 809.198, 365.357 810.142, 365.029 811.087, 364.700 812.031, 364.372 812.976, 364.043 813.920, 363.715 814.865, 363.386 815.809, 363.058 816.754, 362.729 817.698, 362.401 818.643, 362.072 819.587, 361.743 820.532, 361.415 821.476, 361.086 822.421, 360.758 823.365, 360.429 824.310, 360.101 825.254, 359.772 826.198, 359.444 827.143, 359.115 828.088, 358.787 829.032, 358.458 829.977, 358.130 830.921, 357.801 831.865, 357.472 832.810, 357.144 833.754, 356.815 834.699, 356.487 835.643, 356.158 836.588, 355.830 837.532, 355.501 838.477, 355.173 839.421, 354.844 840.366, 354.516 841.310, 354.187 842.255, 353.859 843.199, 353.530 844.144, 353.202 845.088, 352.873 846.033, 352.544 846.977, 352.216 847.922, 351.887 848.866, 351.559 849.811, 351.230 850.755, 350.902 851.700, 350.573 852.644, 350.245 853.589, 349.916 854.533, 349.588 855.478, 349.259 856.422, 348.931 857.367, 348.602 858.311, 348.273 859.256, 347.945 860.200, 347.616 861.145, 347.288 862.089, 346.959 863.034, 346.631 863.978, 346.302 864.923, 345.974 865.867, 345.645 866.812, 345.317 867.756, 344.988 868.701, 344.660 869.645, 344.331 870.590, 344.003 871.534, 343.674 872.479, 343.345 873.423, 343.017 874.368, 342.688 875.312, 342.360 876.257, 342.031 877.201, 341.703 878.146, 341.374 879.090, 341.046 880.035, 340.717 880.979, 340.389 881.924, 340.060 882.868, 339.732 883.812, 339.403 884.757, 339.075 885.701, 338.746 886.646, 338.417 887.591, 338.089 888.535, 337.760 889.479, 337.432 890.424, 337.103 891.368, 336.775 892.313, 336.446 893.257, 336.118 894.202, 335.789 895.146, 335.461 896.091, 335.132 897.035, 334.804 897.980, 334.475 898.924, 334.146 899.869, 333.818 900.813, 333.489 901.758, 333.161 902.702, 332.832 903.647, 332.504 904.591, 332.175 905.536, 331.847 906.480, 331.518 907.425, 331.190 908.369, 330.861 909.314, 330.533 910.258, 330.204 911.203, 329.876 912.147, 329.547 913.092, 329.219 914.036, 328.890 914.981, 328.561 915.925, 328.233 916.870, 327.904 917.814, 327.576 918.759, 327.247 919.703, 326.919 920.648, 326.590 921.592, 326.262 922.537, 325.933 923.481, 325.605 924.426, 325.276 925.370, 324.948 926.315, 324.619 927.259, 324.290 928.204, 323.962 929.148, 323.633 930.093, 323.305 931.037, 322.976 931.982, 322.648 932.926, 322.319 933.871, 321.991 934.815, 321.662 935.760, 321.334 936.704, 321.005 937.649, 320.677 938.593, 320.348 939.538, 320.020 940.482, 319.691 941.427, 319.362 942.371, 319.034 943.315, 318.705 944.260, 318.377 945.204, 318.048 946.149, 317.720 947.094, 317.391 948.038, 317.063 948.982, 316.734 949.927, 316.406 950.871, 316.077 951.816, 315.749 952.760, 315.420 953.705, 315.091 954.649, 314.763 955.594, 314.434 956.538, 314.106 957.483, 313.777 958.427, 313.449 959.372, 313.120 960.316, 312.792 961.261, 312.463 962.205, 312.135 963.150, 311.806 964.094, 311.478 965.039, 311.149 965.983, 310.821 966.928, 310.492 967.872, 310.163 968.817, 309.835 969.761, 309.506 970.706, 309.178 971.650, 308.849 972.595, 308.521 973.539, 308.192 974.484, 307.864 975.428, 307.535 976.373, 307.207 977.317, 306.878 978.262, 306.550 979.206, 306.221 980.151, 305.893 981.095, 305.564 982.040, 305.235 982.984, 304.907 983.929, 304.578 984.873, 304.250 985.818, 303.921 986.762, 303.593 987.707, 303.264 988.651, 302.936 989.596, 302.607 990.540, 302.279 991.485, 301.950 992.429, 301.622 993.374, 301.293 994.318, 300.964 995.263, 300.636 996.207, 300.307 997.152, 299.979 998.096, 299.650 999.041, 299.322 999.985, 298.993 1000.930, 298.665 1001.874, 298.336 1002.818, 298.008 1003.763, 297.679 1004.707, 297.351 1005.652, 297.022 1006.596, 296.694 1007.541, 296.365 1008.485, 296.036 1009.430, 295.708 1010.374, 295.379 1011.319, 295.051 1012.263, 294.722 1013.208, 294.394 1014.152, 294.065 1015.097, 293.737 1016.041, 293.408 1016.986, 293.080 1017.930, 292.751 1018.875, 292.423 1019.819, 292.094 1020.764, 291.766 1023.401, 290.848 " />
            <path fill="none" stroke-width="1.0" stroke-linecap="butt" stroke-opacity="1.0" stroke="rgb(0, 0, 0)" stroke-linejoin="round" d=" M 787.336, 482.111 787.844, 482.972 787.940, 483.136 788.323, 484.060 788.706, 484.984 789.089, 485.907 789.472, 486.831 789.854, 487.755 790.237, 488.679 790.620, 489.603 791.003, 490.526 791.386, 491.450 791.768, 492.374 792.151, 493.298 792.534, 494.222 792.917, 495.146 793.300, 496.069 793.682, 496.993 794.065, 497.917 794.448, 498.841 794.831, 499.765 795.214, 500.689 795.596, 501.612 795.979, 502.536 796.362, 503.460 796.745, 504.384 797.128, 505.308 797.510, 506.232 797.871, 507.102 " />
            <path fill="none" stroke-width="1.0" stroke-linecap="butt" stroke-opacity="1.0" stroke="rgb(0, 0, 0)" stroke-linejoin="round" d=" M 1333.675, 332.770 1332.747, 333.143 1331.819, 333.516 1330.891, 333.888 1329.963, 334.261 1329.035, 334.634 1328.107, 335.007 1327.179, 335.379 1326.251, 335.752 1325.323, 336.125 1324.395, 336.497 1323.467, 336.870 1322.539, 337.243 1321.611, 337.615 1320.684, 337.988 1319.756, 338.361 1318.828, 338.734 1317.900, 339.106 1316.972, 339.479 1316.044, 339.852 1315.116, 340.224 1314.188, 340.597 1313.260, 340.970 1312.332, 341.342 1311.404, 341.715 1310.476, 342.088 1309.548, 342.461 1308.620, 342.833 1307.692, 343.206 1306.764, 343.579 1305.836, 343.951 1304.908, 344.324 1303.980, 344.697 1303.052, 345.069 1302.125, 345.442 1301.197, 345.815 1300.269, 346.187 1299.341, 346.560 1298.413, 346.933 1297.485, 347.306 1296.557, 347.678 1295.629, 348.051 1294.701, 348.424 1293.773, 348.796 1292.845, 349.169 1291.917, 349.542 1290.989, 349.914 1290.061, 350.287 1289.133, 350.660 1288.205, 351.033 1287.277, 351.405 1286.349, 351.778 1285.421, 352.151 1284.493, 352.523 1283.565, 352.896 1282.637, 353.269 1281.709, 353.641 1280.781, 354.014 1279.854, 354.387 1278.926, 354.759 1277.998, 355.132 1277.070, 355.505 1276.142, 355.878 1275.214, 356.250 1274.286, 356.623 1273.358, 356.996 1272.430, 357.368 1271.502, 357.741 1270.574, 358.114 1269.646, 358.486 1268.718, 358.859 1267.790, 359.232 1266.862, 359.605 1265.934, 359.977 1265.006, 360.350 1264.078, 360.723 1263.150, 361.095 1262.223, 361.468 1261.295, 361.841 1260.367, 362.213 1259.439, 362.586 1258.511, 362.959 1257.583, 363.331 1256.655, 363.704 1255.727, 364.077 1254.799, 364.450 1253.871, 364.822 1252.943, 365.195 1252.015, 365.568 1251.087, 365.940 1250.159, 366.313 1249.231, 366.686 1248.303, 367.058 1247.375, 367.431 1246.447, 367.804 1245.519, 368.177 1244.591, 368.549 1243.663, 368.922 1242.735, 369.295 1241.807, 369.667 1240.880, 370.040 1239.952, 370.413 1239.024, 370.785 1238.096, 371.158 1237.168, 371.531 1236.240, 371.904 1235.312, 372.276 1234.384, 372.649 1233.456, 373.022 1232.528, 373.394 1231.600, 373.767 1230.672, 374.140 1229.744, 374.512 1228.816, 374.885 1227.888, 375.258 1226.960, 375.630 1226.032, 376.003 1225.104, 376.376 1224.176, 376.749 1223.248, 377.121 1222.320, 377.494 1221.393, 377.867 1220.465, 378.239 1219.537, 378.612 1218.609, 378.985 1217.681, 379.357 1216.753, 379.730 1215.825, 380.103 1214.897, 380.476 1213.969, 380.848 1213.041, 381.221 1212.113, 381.594 1211.185, 381.966 1210.257, 382.339 1209.329, 382.712 1208.401, 383.084 1207.473, 383.457 1206.545, 383.830 1205.617, 384.203 1204.689, 384.575 1203.761, 384.948 1202.833, 385.321 1201.906, 385.693 1200.978, 386.066 1200.050, 386.439 1199.122, 386.811 1198.194, 387.184 1197.266, 387.557 1196.338, 387.929 1195.410, 388.302 1193.800, 388.949 1192.872, 389.321 1191.944, 389.694 1191.016, 390.067 1190.089, 390.439 1189.161, 390.812 1188.233, 391.185 1187.305, 391.557 1186.377, 391.930 1185.449, 392.303 1184.521, 392.676 1183.593, 393.048 1182.665, 393.421 1181.737, 393.794 1180.809, 394.166 1179.881, 394.539 1178.953, 394.912 1178.025, 395.284 1177.097, 395.657 1176.169, 396.030 1175.241, 396.403 1174.313, 396.775 1173.385, 397.148 1172.457, 397.521 1171.529, 397.893 1170.601, 398.266 1169.674, 398.639 1168.746, 399.011 1167.818, 399.384 1166.890, 399.757 1165.962, 400.130 1165.034, 400.502 1164.106, 400.875 1163.178, 401.248 1162.250, 401.620 1161.322, 401.993 1160.394, 402.366 1159.466, 402.738 1158.538, 403.111 1157.610, 403.484 1156.682, 403.856 1155.754, 404.229 1154.826, 404.602 1153.898, 404.975 1152.970, 405.347 1152.042, 405.720 1151.115, 406.093 1150.187, 406.465 1149.259, 406.838 1148.331, 407.211 1147.403, 407.583 1146.475, 407.956 1145.547, 408.329 1144.619, 408.701 1143.691, 409.074 1142.763, 409.447 1141.835, 409.820 1140.907, 410.192 1139.979, 410.565 1139.051, 410.938 1138.123, 411.310 1137.195, 411.683 1136.267, 412.056 1135.339, 412.428 1134.411, 412.801 1133.483, 413.174 1132.555, 413.547 1131.627, 413.919 1130.699, 414.292 1129.771, 414.665 1128.844, 415.037 1127.916, 415.410 1126.988, 415.783 1126.060, 416.155 1125.132, 416.528 1124.204, 416.901 1123.276, 417.273 1122.348, 417.646 1121.420, 418.019 1120.492, 418.392 1119.564, 418.764 1118.636, 419.137 1117.708, 419.510 1116.780, 419.882 1115.852, 420.255 1114.924, 420.628 1113.996, 421.000 1113.068, 421.373 1112.140, 421.746 1111.213, 422.119 1110.285, 422.491 1109.357, 422.864 1108.429, 423.237 1107.501, 423.609 1106.573, 423.982 1105.645, 424.355 1104.717, 424.727 1103.789, 425.100 1102.861, 425.473 1101.933, 425.846 1101.005, 426.218 1100.077, 426.591 1099.149, 426.964 1098.221, 427.336 1097.293, 427.709 1096.365, 428.082 1094.510, 428.827 " />
            <path fill="none" stroke-width="1.0" stroke-linecap="butt" stroke-opacity="1.0" stroke="rgb(0, 0, 0)" stroke-linejoin="round" d=" M 1094.510, 428.827 1094.000, 429.687 1093.490, 430.547 1092.979, 431.407 1092.469, 432.267 1091.959, 433.127 1091.448, 433.987 1090.938, 434.847 1090.428, 435.707 1089.917, 436.567 1089.407, 437.427 1088.897, 438.287 1088.387, 439.147 1087.876, 440.007 1087.366, 440.867 1086.856, 441.727 1086.346, 442.587 1085.835, 443.447 1085.325, 444.307 1084.815, 445.167 1084.304, 446.027 1083.794, 446.887 1083.284, 447.747 1082.774, 448.607 1082.263, 449.467 1081.753, 450.327 1081.243, 451.187 1080.733, 452.047 1080.222, 452.907 1079.712, 453.767 1079.202, 454.627 1078.691, 455.487 1078.181, 456.347 1077.671, 457.207 1077.161, 458.067 1076.650, 458.927 1076.140, 459.787 1075.630, 460.647 1075.120, 461.507 1074.609, 462.367 1074.099, 463.227 1073.589, 464.087 1073.078, 464.947 1072.568, 465.807 1072.058, 466.667 1071.548, 467.527 1071.037, 468.387 1070.527, 469.247 1070.017, 470.107 1069.506, 470.967 1068.996, 471.827 1068.486, 472.687 1067.976, 473.547 1067.465, 474.407 1066.955, 475.267 1066.445, 476.127 1065.935, 476.987 1065.424, 477.847 1064.914, 478.707 1064.404, 479.568 1063.893, 480.427 1063.383, 481.288 1062.873, 482.148 1062.363, 483.008 1061.852, 483.868 1061.342, 484.728 1060.832, 485.588 1060.322, 486.448 1059.811, 487.308 1059.301, 488.168 1058.791, 489.028 1058.280, 489.888 1057.770, 490.748 1057.260, 491.608 1056.750, 492.468 1056.239, 493.328 1055.507, 494.561 1054.997, 495.421 1054.487, 496.281 1054.267, 496.652 1054.768, 495.787 1055.269, 494.922 1055.469, 494.577 1055.970, 493.712 1056.472, 492.847 1056.973, 491.982 1057.475, 491.116 1057.976, 490.251 1058.477, 489.386 1058.979, 488.521 1059.480, 487.655 1059.981, 486.790 1060.483, 485.925 1060.984, 485.060 1061.486, 484.194 1061.987, 483.329 1062.488, 482.464 1062.990, 481.599 1063.491, 480.734 1063.992, 479.868 1064.494, 479.003 1064.995, 478.138 1065.497, 477.273 1065.998, 476.407 1066.499, 475.542 1067.001, 474.677 1067.502, 473.812 1068.003, 472.946 1068.505, 472.081 1069.006, 471.216 1069.508, 470.351 1070.009, 469.485 1070.510, 468.620 1071.012, 467.755 1071.513, 466.890 1072.014, 466.025 1072.516, 465.159 1073.017, 464.294 1073.518, 463.429 1074.020, 462.564 1074.521, 461.698 1075.023, 460.833 1075.524, 459.968 1076.025, 459.103 1076.527, 458.237 1077.028, 457.372 1077.529, 456.507 1078.031, 455.642 1078.532, 454.777 1079.034, 453.911 1079.535, 453.046 1080.036, 452.181 1080.538, 451.316 1081.039, 450.450 1081.540, 449.585 1082.042, 448.720 1082.543, 447.855 1083.045, 446.989 1083.546, 446.124 1084.047, 445.259 1084.549, 444.394 1085.050, 443.529 1085.551, 442.663 1086.053, 441.798 1086.554, 440.933 1087.055, 440.068 1087.557, 439.202 1088.058, 438.337 1088.560, 437.472 1089.061, 436.607 1089.562, 435.741 1090.064, 434.876 1090.565, 434.011 1091.066, 433.146 1091.568, 432.280 1092.069, 431.415 1092.571, 430.550 1093.072, 429.685 1093.751, 428.513 1094.510, 428.827 " />
            <path fill="none" stroke-width="1.0" stroke-linecap="butt" stroke-opacity="1.0" stroke="rgb(0, 0, 0)" stroke-linejoin="round" d=" M 779.852, 478.273 780.399, 479.109 780.947, 479.946 781.495, 480.783 782.042, 481.619 782.590, 482.456 783.137, 483.293 783.685, 484.130 784.233, 484.966 784.780, 485.803 785.328, 486.640 785.875, 487.477 786.423, 488.313 786.971, 489.150 787.518, 489.987 788.066, 490.824 788.613, 491.660 789.161, 492.497 789.709, 493.334 790.256, 494.170 790.804, 495.007 791.352, 495.844 791.899, 496.681 792.447, 497.517 792.994, 498.354 793.542, 499.191 794.090, 500.028 794.637, 500.864 795.185, 501.701 795.732, 502.538 796.336, 503.460 " />
        </g>
    </g>
</svg>
