<?xml version='1.0' encoding='ascii'?>
<svg xmlns="http://www.w3.org/2000/svg" version="1.1" width="3840" height="2160">
    <g id="ViewLayer_LineSet" xmlns:inkscape="http://www.inkscape.org/namespaces/inkscape" inkscape:groupmode="lineset" inkscape:label="ViewLayer_LineSet">
        <g xmlns:inkscape="http://www.inkscape.org/namespaces/inkscape" inkscape:groupmode="layer" id="strokes" inkscape:label="strokes">
            <path fill="none" stroke-width="3.0" stroke-linecap="butt" stroke-opacity="1.0" stroke="rgb(0, 0, 0)" stroke-linejoin="round" d=" M 1111.169, 1302.039 1118.568, 1299.777 1128.131, 1296.854 1137.694, 1293.931 1147.258, 1291.008 1156.821, 1288.084 1166.384, 1285.161 1175.947, 1282.238 1185.510, 1279.314 1195.073, 1276.391 1204.637, 1273.468 1214.200, 1270.544 1223.763, 1267.621 1233.326, 1264.698 1242.889, 1261.775 1252.453, 1258.851 1262.016, 1255.928 1271.579, 1253.005 1281.142, 1250.081 1290.705, 1247.158 1300.268, 1244.235 1309.832, 1241.312 1311.857, 1240.692 1321.420, 1237.769 1328.603, 1235.574 1338.166, 1232.650 1347.729, 1229.727 1357.292, 1226.804 1366.855, 1223.880 1376.419, 1220.957 1385.982, 1218.034 1395.545, 1215.111 1405.108, 1212.187 1414.671, 1209.264 1424.234, 1206.341 1433.798, 1203.417 1443.361, 1200.494 1452.924, 1197.571 1462.487, 1194.648 1472.050, 1191.724 1481.614, 1188.801 1491.177, 1185.878 1500.740, 1182.954 1510.303, 1180.031 1519.866, 1177.108 1529.429, 1174.185 1538.993, 1171.261 1548.556, 1168.338 1558.119, 1165.415 1567.682, 1162.491 1577.245, 1159.568 1586.808, 1156.645 1596.372, 1153.721 1605.935, 1150.798 1615.498, 1147.875 1625.061, 1144.952 1634.624, 1142.028 1644.188, 1139.105 1653.751, 1136.182 1663.314, 1133.258 1672.877, 1130.335 1682.440, 1127.412 1692.003, 1124.489 1701.567, 1121.565 1711.130, 1118.642 1720.693, 1115.719 1730.256, 1112.795 1739.819, 1109.872 1749.382, 1106.949 1758.946, 1104.026 1768.509, 1101.102 1778.072, 1098.179 1787.635, 1095.256 1797.198, 1092.332 1806.761, 1089.409 1816.325, 1086.486 1825.888, 1083.562 1835.451, 1080.639 1845.014, 1077.716 1854.577, 1074.793 1864.141, 1071.869 1873.704, 1068.946 1883.267, 1066.023 1892.830, 1063.099 1902.393, 1060.176 1911.956, 1057.253 1921.520, 1054.330 1931.083, 1051.406 1940.646, 1048.483 1950.209, 1045.560 1959.772, 1042.636 1969.336, 1039.713 1978.899, 1036.790 1988.462, 1033.867 1998.025, 1030.943 2007.588, 1028.020 2017.151, 1025.097 2026.715, 1022.173 2036.278, 1019.250 2045.841, 1016.327 2055.404, 1013.403 2064.967, 1010.480 2074.531, 1007.557 2084.094, 1004.634 2093.657, 1001.710 2103.220, 998.787 2112.783, 995.864 2122.346, 992.940 2133.492, 989.533 " />
            <path fill="none" stroke-width="3.0" stroke-linecap="butt" stroke-opacity="1.0" stroke="rgb(0, 0, 0)" stroke-linejoin="round" d=" M 1111.709, 1302.700 1121.273, 1299.778 1130.836, 1296.855 1140.399, 1293.932 1149.963, 1291.010 1159.526, 1288.087 1169.089, 1285.164 1178.653, 1282.242 1188.216, 1279.319 1197.779, 1276.396 1207.343, 1273.474 1216.906, 1270.551 1226.470, 1267.628 1236.033, 1264.706 1245.596, 1261.783 1255.160, 1258.860 1264.723, 1255.938 1274.286, 1253.015 1276.036, 1252.480 1281.058, 1250.945 1290.621, 1248.023 1297.444, 1245.938 1307.008, 1243.015 1314.186, 1240.821 1323.749, 1237.898 1333.312, 1234.976 1342.876, 1232.053 1352.439, 1229.130 1362.003, 1226.208 1371.566, 1223.285 1381.129, 1220.362 1390.693, 1217.440 1400.256, 1214.517 1409.819, 1211.594 1419.383, 1208.672 1428.946, 1205.749 1438.509, 1202.826 1448.073, 1199.904 1457.636, 1196.981 1467.200, 1194.058 1476.763, 1191.136 1486.326, 1188.213 1495.890, 1185.290 1505.453, 1182.368 1515.016, 1179.445 1524.580, 1176.522 1534.143, 1173.600 1543.706, 1170.677 1553.270, 1167.754 1562.833, 1164.832 1572.397, 1161.909 1581.960, 1158.986 1591.523, 1156.064 1601.087, 1153.141 1610.650, 1150.218 1620.213, 1147.296 1629.777, 1144.373 1639.340, 1141.450 1648.903, 1138.528 1658.467, 1135.605 1668.030, 1132.682 1677.594, 1129.760 1687.157, 1126.837 1696.720, 1123.914 1706.284, 1120.991 1715.847, 1118.069 1725.410, 1115.146 1734.974, 1112.223 1744.537, 1109.301 1754.100, 1106.378 1763.664, 1103.455 1773.227, 1100.533 1782.791, 1097.610 1792.354, 1094.687 1801.917, 1091.765 1811.481, 1088.842 1821.044, 1085.919 1830.607, 1082.997 1840.171, 1080.074 1849.734, 1077.151 1859.297, 1074.229 1868.861, 1071.306 1878.424, 1068.383 1887.988, 1065.461 1897.551, 1062.538 1907.114, 1059.615 1916.678, 1056.693 1926.241, 1053.770 1935.804, 1050.847 1945.368, 1047.925 1954.931, 1045.002 1964.495, 1042.079 1974.058, 1039.156 1983.621, 1036.234 1993.185, 1033.311 2002.748, 1030.388 2012.311, 1027.466 2021.875, 1024.543 2031.438, 1021.620 2041.001, 1018.698 2050.565, 1015.775 2060.128, 1012.852 2069.692, 1009.930 2079.255, 1007.007 2088.818, 1004.084 2098.382, 1001.162 2107.945, 998.239 2117.508, 995.316 2133.615, 990.394 2143.450, 992.202 2153.285, 994.010 2163.121, 995.818 2172.956, 997.626 2182.791, 999.434 2192.626, 1001.242 2202.461, 1003.050 2212.297, 1004.858 2222.132, 1006.666 2231.967, 1008.474 2241.802, 1010.282 2251.637, 1012.090 2261.473, 1013.898 2271.308, 1015.706 2281.143, 1017.514 2290.978, 1019.322 2300.813, 1021.130 2310.649, 1022.938 2320.484, 1024.746 2330.319, 1026.554 2340.154, 1028.362 2349.990, 1030.170 2359.825, 1031.978 2369.660, 1033.786 2379.495, 1035.594 2389.330, 1037.402 2399.166, 1039.210 2409.000, 1041.018 2418.836, 1042.826 2428.671, 1044.634 2438.506, 1046.442 2448.341, 1048.250 2458.177, 1050.058 2468.012, 1051.866 2477.847, 1053.674 2487.682, 1055.482 2497.517, 1057.291 2507.353, 1059.099 2517.188, 1060.906 2527.023, 1062.714 2536.858, 1064.523 2546.693, 1066.331 2556.529, 1068.139 2566.364, 1069.947 2576.199, 1071.755 2586.034, 1073.563 2595.869, 1075.371 2605.705, 1077.179 2615.540, 1078.987 2625.375, 1080.795 2635.210, 1082.603 2645.045, 1084.411 2654.881, 1086.219 2664.716, 1088.027 2674.551, 1089.835 2684.386, 1091.643 2694.221, 1093.451 2704.056, 1095.259 2713.892, 1097.067 2723.727, 1098.875 2733.562, 1100.683 2743.397, 1102.491 2753.232, 1104.299 2763.068, 1106.107 2772.903, 1107.915 2782.738, 1109.723 2792.573, 1111.531 2802.408, 1113.339 2812.244, 1115.147 2822.079, 1116.955 2831.914, 1118.763 2839.704, 1120.195 2839.888, 1119.468 2834.570, 1110.999 2829.252, 1102.530 2823.935, 1094.061 2818.617, 1085.592 2813.299, 1077.123 2807.982, 1068.654 2802.664, 1060.185 2797.346, 1051.717 2792.029, 1043.248 2786.711, 1034.779 2781.393, 1026.310 2776.076, 1017.841 2770.758, 1009.372 2765.440, 1000.903 2760.123, 992.434 2754.805, 983.965 2749.487, 975.496 2744.170, 967.027 2738.852, 958.559 2733.534, 950.090 2728.217, 941.621 2722.899, 933.152 2717.581, 924.683 2712.263, 916.214 2706.946, 907.745 2701.628, 899.276 2696.311, 890.807 2690.993, 882.338 2685.675, 873.870 2680.357, 865.401 2675.040, 856.932 2669.722, 848.463 2664.405, 839.994 2659.087, 831.525 2653.769, 823.056 2648.451, 814.587 2643.134, 806.118 2637.816, 797.649 2632.499, 789.180 2628.647, 783.046 2619.024, 780.324 2609.402, 777.602 2599.780, 774.880 2590.157, 772.158 2580.535, 769.436 2570.912, 766.714 2561.290, 763.993 2551.667, 761.271 2542.045, 758.549 2532.423, 755.827 2522.800, 753.105 2513.178, 750.383 2503.555, 747.661 2493.933, 744.939 2484.311, 742.217 2474.688, 739.495 2465.066, 736.773 2455.443, 734.051 2448.531, 732.096 2439.331, 736.016 2430.132, 739.937 2420.932, 743.857 2411.733, 747.778 2402.533, 751.698 2400.160, 752.710 2399.682, 752.913 2390.483, 756.834 2381.283, 760.755 2372.084, 764.675 2362.884, 768.595 2353.685, 772.516 2344.485, 776.437 2335.286, 780.357 2326.087, 784.278 2316.887, 788.198 2307.688, 792.119 2298.488, 796.039 2289.289, 799.960 2280.089, 803.880 2270.890, 807.801 2261.691, 811.721 2252.491, 815.642 2243.292, 819.562 2234.092, 823.483 2224.893, 827.403 2215.693, 831.324 2206.494, 835.244 2197.295, 839.165 2188.095, 843.085 2178.896, 847.006 2169.696, 850.927 2160.497, 854.847 2151.297, 858.768 2142.098, 862.688 2132.899, 866.609 2123.699, 870.529 2114.500, 874.450 2105.300, 878.370 2096.101, 882.291 2086.901, 886.211 2077.702, 890.132 2068.502, 894.052 2059.303, 897.973 2050.104, 901.893 2040.904, 905.814 2031.705, 909.734 2022.505, 913.655 2013.306, 917.575 2004.107, 921.496 1994.907, 925.416 1985.708, 929.337 1976.508, 933.257 1967.309, 937.178 1958.109, 941.099 1948.910, 945.019 1939.711, 948.940 1930.511, 952.860 1921.312, 956.781 1912.112, 960.701 1902.913, 964.622 1893.713, 968.542 1884.514, 972.463 1875.315, 976.383 1866.115, 980.304 1856.916, 984.224 1847.716, 988.145 1838.517, 992.065 1829.317, 995.986 1820.118, 999.906 1810.918, 1003.827 1801.719, 1007.747 1792.520, 1011.668 1783.320, 1015.588 1774.121, 1019.509 1764.921, 1023.429 1755.722, 1027.350 1746.522, 1031.271 1737.323, 1035.191 1728.124, 1039.112 1718.924, 1043.032 1709.725, 1046.953 1700.525, 1050.873 1691.326, 1054.794 1682.126, 1058.714 1672.927, 1062.635 1663.728, 1066.555 1654.528, 1070.476 1645.329, 1074.396 1636.129, 1078.317 1626.930, 1082.237 1617.731, 1086.158 1608.531, 1090.078 1599.332, 1093.999 1590.132, 1097.919 1580.933, 1101.840 1571.733, 1105.760 1562.534, 1109.681 1553.334, 1113.601 1544.135, 1117.522 1534.936, 1121.443 1525.736, 1125.363 1516.537, 1129.284 1507.337, 1133.204 1498.138, 1137.125 1488.938, 1141.045 1479.739, 1144.966 1470.540, 1148.886 1461.340, 1152.807 1452.141, 1156.727 1442.941, 1160.648 1433.742, 1164.568 1424.542, 1168.489 1415.343, 1172.409 1406.144, 1176.330 1396.944, 1180.250 1387.745, 1184.171 1378.545, 1188.091 1369.346, 1192.012 1360.146, 1195.932 1350.947, 1199.853 1341.748, 1203.773 1332.548, 1207.694 1323.349, 1211.615 1314.149, 1215.535 1304.950, 1219.456 1295.750, 1223.376 1286.551, 1227.297 1277.352, 1231.217 1268.152, 1235.138 1258.953, 1239.058 1249.753, 1242.979 1240.554, 1246.899 1231.354, 1250.820 1222.155, 1254.740 1212.956, 1258.661 1203.756, 1262.581 1194.557, 1266.502 1185.357, 1270.422 1176.158, 1274.343 1166.958, 1278.263 1157.759, 1282.184 1148.560, 1286.104 1139.360, 1290.025 1130.161, 1293.945 1111.169, 1302.039 1108.577, 1311.697 1107.896, 1314.233 1107.803, 1314.579 1107.692, 1314.993 " />
            <path fill="none" stroke-width="3.0" stroke-linecap="butt" stroke-opacity="1.0" stroke="rgb(0, 0, 0)" stroke-linejoin="round" d=" M 2400.160, 752.710 2398.656, 742.823 2397.152, 732.937 2395.648, 723.051 2394.145, 713.165 2393.111, 706.372 2384.401, 701.460 2375.691, 696.548 2366.980, 691.636 2358.270, 686.724 2349.560, 681.811 2340.849, 676.899 2332.139, 671.987 2323.428, 667.075 2314.718, 662.162 2306.008, 657.250 2297.297, 652.338 2288.587, 647.426 2279.877, 642.514 2271.167, 637.601 2262.456, 632.689 2253.746, 627.777 2245.035, 622.865 2236.325, 617.953 2227.615, 613.040 2218.904, 608.128 2210.194, 603.216 2201.484, 598.304 2192.773, 593.392 2184.063, 588.479 2175.353, 583.567 2166.642, 578.655 2157.932, 573.743 2149.221, 568.831 2140.511, 563.918 2131.801, 559.006 2123.090, 554.094 2114.380, 549.182 2105.670, 544.270 2096.959, 539.357 2088.249, 534.445 2079.539, 529.533 2070.828, 524.621 2062.118, 519.708 2054.948, 515.665 2044.950, 515.507 2034.951, 515.348 2024.952, 515.190 2014.953, 515.032 2004.955, 514.873 1994.956, 514.715 1984.957, 514.556 1974.958, 514.398 1964.960, 514.240 1954.961, 514.081 1944.962, 513.923 1934.963, 513.765 1924.965, 513.606 1914.966, 513.448 1904.967, 513.289 1894.968, 513.131 1884.970, 512.973 1874.971, 512.814 1864.972, 512.656 1854.973, 512.497 1844.975, 512.339 1834.976, 512.181 1824.977, 512.022 1814.978, 511.864 1804.980, 511.705 1794.981, 511.547 1784.982, 511.389 1774.983, 511.230 1764.985, 511.072 1754.986, 510.913 1744.987, 510.755 1734.988, 510.597 1724.990, 510.438 1714.991, 510.280 1704.992, 510.121 1694.993, 509.963 1684.995, 509.805 1674.996, 509.646 1664.997, 509.488 1654.998, 509.329 1645.000, 509.171 1635.001, 509.013 1625.002, 508.854 1615.003, 508.696 1605.005, 508.538 1595.006, 508.379 1585.007, 508.221 1575.008, 508.062 1565.010, 507.904 1557.880, 507.791 1557.532, 517.785 1557.184, 527.779 1556.836, 537.773 1556.489, 547.767 1556.141, 557.761 1555.793, 567.755 1555.445, 577.749 1555.097, 587.743 1554.749, 597.737 1554.402, 607.730 1554.074, 617.154 1553.726, 627.148 1553.378, 637.142 1553.030, 647.136 1552.682, 657.130 1552.334, 667.124 1551.987, 677.118 1551.639, 687.112 1551.291, 697.106 1551.139, 701.468 1551.032, 701.610 1545.022, 709.603 1539.012, 717.595 1533.002, 725.588 1526.992, 733.580 1520.983, 741.573 1514.973, 749.565 1508.963, 757.558 1502.953, 765.551 1496.943, 773.543 1490.933, 781.536 1484.923, 789.528 1478.913, 797.521 1472.903, 805.513 1466.893, 813.506 1460.883, 821.498 1454.873, 829.491 1448.863, 837.483 1442.853, 845.476 1436.843, 853.468 1430.833, 861.461 1424.823, 869.453 1418.813, 877.446 1412.803, 885.438 1406.793, 893.431 1400.783, 901.423 1394.774, 909.416 1388.764, 917.408 1382.754, 925.401 1376.744, 933.394 1370.734, 941.386 1364.724, 949.379 1358.714, 957.371 1352.704, 965.364 1349.187, 970.041 1343.177, 978.034 1337.167, 986.026 1331.157, 994.019 1325.147, 1002.011 1319.137, 1010.004 1313.127, 1017.996 1307.117, 1025.989 1301.107, 1033.981 1295.097, 1041.974 1289.087, 1049.966 1283.077, 1057.959 1277.067, 1065.951 1271.057, 1073.944 1265.047, 1081.937 1259.037, 1089.929 1253.027, 1097.922 1247.017, 1105.914 1241.008, 1113.907 1234.998, 1121.899 1228.988, 1129.892 1222.978, 1137.884 1216.968, 1145.877 1210.958, 1153.869 1204.948, 1161.862 1198.938, 1169.854 1192.928, 1177.847 1186.918, 1185.839 1180.908, 1193.832 1174.898, 1201.824 1168.888, 1209.817 1162.878, 1217.809 1156.868, 1225.802 1150.858, 1233.794 1144.848, 1241.787 1138.838, 1249.780 1132.828, 1257.772 1126.818, 1265.765 1120.808, 1273.757 1114.799, 1281.750 1108.789, 1289.742 1103.170, 1297.214 1102.959, 1297.494 " />
            <path fill="none" stroke-width="3.0" stroke-linecap="butt" stroke-opacity="1.0" stroke="rgb(0, 0, 0)" stroke-linejoin="round" d=" M 1102.959, 1297.494 1112.051, 1293.329 1121.142, 1289.164 1130.233, 1284.998 1139.324, 1280.833 1148.415, 1276.667 1157.506, 1272.502 1166.598, 1268.337 1175.689, 1264.171 1184.780, 1260.006 1193.871, 1255.841 1202.962, 1251.675 1212.053, 1247.510 1221.145, 1243.344 1230.236, 1239.179 1239.327, 1235.013 1248.418, 1230.848 1257.509, 1226.683 1266.600, 1222.517 1275.692, 1218.352 1284.783, 1214.187 1293.874, 1210.021 1302.965, 1205.856 1312.056, 1201.690 1321.148, 1197.525 1330.239, 1193.359 1339.330, 1189.194 1348.421, 1185.029 1357.512, 1180.863 1366.603, 1176.698 1375.695, 1172.533 1384.786, 1168.367 1393.877, 1164.202 1402.968, 1160.036 1412.059, 1155.871 1421.151, 1151.706 1430.242, 1147.540 1439.333, 1143.375 1448.424, 1139.209 1457.515, 1135.044 1466.606, 1130.879 1475.698, 1126.713 1484.789, 1122.548 1493.880, 1118.382 1502.971, 1114.217 1512.062, 1110.052 1521.153, 1105.886 1530.245, 1101.721 1539.336, 1097.555 1548.427, 1093.390 1557.518, 1089.225 1566.609, 1085.059 1575.700, 1080.894 1584.792, 1076.728 1593.883, 1072.563 1602.974, 1068.398 1612.065, 1064.232 1621.156, 1060.067 1630.248, 1055.901 1639.339, 1051.736 1648.430, 1047.571 1657.521, 1043.405 1666.612, 1039.240 1675.703, 1035.074 1684.795, 1030.909 1693.886, 1026.744 1702.977, 1022.578 1712.068, 1018.413 1721.159, 1014.247 1730.250, 1010.082 1739.342, 1005.917 1748.433, 1001.751 1757.524, 997.586 1766.615, 993.420 1775.706, 989.255 1784.797, 985.090 1793.889, 980.924 1802.980, 976.759 1812.071, 972.594 1821.162, 968.428 1830.253, 964.263 1839.345, 960.097 1848.436, 955.932 1857.527, 951.766 1866.618, 947.601 1875.709, 943.436 1884.800, 939.270 1893.892, 935.105 1902.983, 930.939 1912.074, 926.774 1921.165, 922.609 1930.256, 918.443 1939.348, 914.278 1948.439, 910.113 1957.530, 905.947 1966.621, 901.782 1975.712, 897.616 1984.803, 893.451 1993.895, 889.286 2002.986, 885.120 2012.077, 880.955 2021.168, 876.789 2030.259, 872.624 2039.350, 868.458 2048.442, 864.293 2057.533, 860.128 2066.624, 855.962 2075.715, 851.797 2084.806, 847.632 2093.897, 843.466 2102.989, 839.301 2112.080, 835.135 2121.171, 830.970 2130.262, 826.805 2139.353, 822.639 2148.445, 818.474 2157.536, 814.308 2166.627, 810.143 2175.718, 805.978 2184.809, 801.812 2193.900, 797.647 2202.991, 793.481 2212.083, 789.316 2221.174, 785.151 2230.265, 780.985 2239.356, 776.820 2248.448, 772.654 2257.539, 768.489 2266.630, 764.324 2275.721, 760.158 2284.812, 755.993 2293.903, 751.827 2302.994, 747.662 2312.086, 743.497 2321.177, 739.331 2330.268, 735.166 2339.359, 731.000 2348.450, 726.835 2357.542, 722.670 2366.633, 718.504 2375.724, 714.339 2393.111, 706.372 " />
            <path fill="none" stroke-width="3.0" stroke-linecap="butt" stroke-opacity="1.0" stroke="rgb(0, 0, 0)" stroke-linejoin="round" d=" M 1106.950, 1314.581 1107.692, 1314.993 " />
            <path fill="none" stroke-width="3.0" stroke-linecap="butt" stroke-opacity="1.0" stroke="rgb(0, 0, 0)" stroke-linejoin="round" d=" M 1102.421, 1297.557 1102.959, 1297.494 1105.234, 1307.232 1106.950, 1314.581 1107.896, 1314.233 " />
            <path fill="none" stroke-width="3.0" stroke-linecap="butt" stroke-opacity="1.0" stroke="rgb(0, 0, 0)" stroke-linejoin="round" d=" M 1111.709, 1302.700 1121.270, 1299.770 1130.831, 1296.840 1140.392, 1293.909 1149.953, 1290.979 1159.514, 1288.049 1169.075, 1285.118 1178.636, 1282.188 1188.197, 1279.258 1197.758, 1276.327 1207.319, 1273.397 1216.880, 1270.466 1226.441, 1267.536 1236.002, 1264.606 1245.563, 1261.675 1255.124, 1258.745 1264.685, 1255.815 1274.246, 1252.884 1283.807, 1249.954 1293.368, 1247.023 1300.287, 1244.903 1309.848, 1241.973 1317.281, 1239.695 1326.842, 1236.764 1336.403, 1233.834 1345.964, 1230.903 1355.525, 1227.973 1365.086, 1225.043 1374.647, 1222.112 1384.208, 1219.182 1393.769, 1216.252 1403.330, 1213.321 1412.891, 1210.391 1422.452, 1207.461 1432.013, 1204.530 1441.574, 1201.600 1451.135, 1198.669 1460.696, 1195.739 1470.257, 1192.809 1479.818, 1189.878 1489.379, 1186.948 1498.940, 1184.018 1508.501, 1181.087 1518.062, 1178.157 1527.623, 1175.227 1537.184, 1172.296 1546.745, 1169.366 1556.306, 1166.435 1565.867, 1163.505 1575.428, 1160.575 1584.989, 1157.644 1594.550, 1154.714 1604.111, 1151.784 1613.672, 1148.853 1623.234, 1145.923 1632.794, 1142.993 1642.355, 1140.062 1651.917, 1137.132 1661.478, 1134.202 1671.039, 1131.271 1680.599, 1128.341 1690.161, 1125.410 1699.722, 1122.480 1709.283, 1119.550 1718.844, 1116.619 1728.405, 1113.689 1737.966, 1110.759 1747.527, 1107.828 1757.088, 1104.898 1766.649, 1101.968 1776.210, 1099.037 1785.771, 1096.107 1795.332, 1093.176 1804.893, 1090.246 1814.454, 1087.316 1824.015, 1084.385 1833.576, 1081.455 1843.137, 1078.525 1852.698, 1075.594 1862.259, 1072.664 1871.820, 1069.734 1881.381, 1066.803 1890.942, 1063.873 1900.503, 1060.942 1910.064, 1058.012 1919.625, 1055.082 1929.186, 1052.151 1938.747, 1049.221 1948.308, 1046.291 1957.869, 1043.360 1967.430, 1040.430 1976.991, 1037.500 1986.552, 1034.569 1996.113, 1031.639 2005.674, 1028.708 2015.235, 1025.778 2024.796, 1022.848 2034.357, 1019.917 2043.918, 1016.987 2053.479, 1014.057 2063.040, 1011.126 2072.601, 1008.196 2082.162, 1005.266 2091.723, 1002.335 2101.284, 999.405 2110.845, 996.474 2120.406, 993.544 2133.492, 989.533 2143.327, 991.342 2153.162, 993.151 2162.998, 994.960 2172.833, 996.770 2182.667, 998.578 2192.502, 1000.388 2202.337, 1002.197 2212.173, 1004.006 2222.008, 1005.815 2231.843, 1007.624 2241.677, 1009.433 2251.512, 1011.242 2261.347, 1013.051 2271.183, 1014.860 2281.018, 1016.669 2290.853, 1018.478 2300.688, 1020.287 2310.522, 1022.096 2320.358, 1023.905 2330.193, 1025.714 2340.028, 1027.523 2349.863, 1029.332 2359.698, 1031.141 2369.532, 1032.951 2379.368, 1034.760 2389.203, 1036.569 2399.038, 1038.378 2408.873, 1040.187 2418.708, 1041.996 2428.543, 1043.805 2438.378, 1045.614 2448.213, 1047.423 2458.048, 1049.232 2467.883, 1051.041 2477.718, 1052.850 2487.553, 1054.659 2497.388, 1056.468 2507.223, 1058.277 2517.058, 1060.086 2526.893, 1061.895 2536.728, 1063.704 2546.563, 1065.514 2556.398, 1067.323 2566.233, 1069.132 2576.068, 1070.941 2585.903, 1072.750 2595.738, 1074.559 2605.573, 1076.368 2615.408, 1078.177 2625.243, 1079.986 2635.078, 1081.795 2644.913, 1083.604 2654.748, 1085.413 2664.583, 1087.222 2674.418, 1089.031 2684.253, 1090.840 2694.088, 1092.649 2703.923, 1094.458 2713.758, 1096.267 2723.593, 1098.077 2733.428, 1099.885 2743.263, 1101.695 2753.098, 1103.504 2762.933, 1105.313 2772.768, 1107.122 2782.603, 1108.931 2792.438, 1110.740 2802.273, 1112.549 2812.108, 1114.358 2821.943, 1116.167 2831.778, 1117.976 2839.888, 1119.468 " />
            <path fill="none" stroke-width="3.0" stroke-linecap="butt" stroke-opacity="1.0" stroke="rgb(0, 0, 0)" stroke-linejoin="round" d=" M 1349.187, 970.041 1343.169, 978.028 1337.151, 986.015 1331.134, 994.001 1325.116, 1001.988 1319.099, 1009.975 1313.081, 1017.962 1307.063, 1025.948 1301.046, 1033.935 1295.028, 1041.922 1289.011, 1049.909 1282.993, 1057.896 1276.976, 1065.882 1270.958, 1073.869 1264.940, 1081.856 1258.923, 1089.843 1252.905, 1097.829 1246.888, 1105.816 1240.870, 1113.803 1234.852, 1121.790 1228.835, 1129.776 1222.817, 1137.763 1216.800, 1145.750 1210.782, 1153.737 1204.764, 1161.724 1198.747, 1169.710 1192.729, 1177.697 1186.712, 1185.684 1180.694, 1193.671 1174.676, 1201.657 1168.659, 1209.644 1162.641, 1217.631 1156.624, 1225.618 1150.606, 1233.605 1144.588, 1241.591 1138.571, 1249.578 1132.553, 1257.565 1126.536, 1265.552 1120.518, 1273.538 1114.500, 1281.525 1108.483, 1289.512 1102.421, 1297.557 1104.730, 1307.287 1106.568, 1315.033 1108.047, 1315.853 1117.443, 1312.433 1126.840, 1309.013 1136.237, 1305.592 1145.634, 1302.172 1155.031, 1298.752 1164.428, 1295.331 1173.825, 1291.911 1183.222, 1288.490 1192.619, 1285.070 1202.015, 1281.650 1211.412, 1278.229 1220.809, 1274.809 1230.206, 1271.389 1239.603, 1267.968 1249.000, 1264.548 1258.397, 1261.128 1267.793, 1257.707 1277.190, 1254.287 1286.587, 1250.867 1295.984, 1247.446 1305.381, 1244.026 1314.186, 1240.821 " />
            <path fill="none" stroke-width="3.0" stroke-linecap="butt" stroke-opacity="1.0" stroke="rgb(0, 0, 0)" stroke-linejoin="round" d=" M 1111.169, 1302.039 1111.709, 1302.700 1109.027, 1312.334 1108.353, 1314.752 1108.047, 1315.853 " />
            <path fill="none" stroke-width="3.0" stroke-linecap="butt" stroke-opacity="1.0" stroke="rgb(0, 0, 0)" stroke-linejoin="round" d=" M 1554.074, 617.154 1553.714, 627.148 1553.354, 637.141 1552.994, 647.135 1552.634, 657.128 1552.274, 667.122 1551.914, 677.115 1551.554, 687.109 1551.195, 697.102 1551.032, 701.610 " />
        </g>
    </g>
</svg>
